<svg width="1180" height="1033" viewBox="0 0 1180 1033" fill="none" xmlns="http://www.w3.org/2000/svg">
<path d="M167.499 906.5L63.9991 819.5L43.4991 747.5L21.9991 685.5V635.5L5.99915 606.5L1.99915 571L14.9991 517.5L17.9991 505.5L21.9991 499.5L46.9991 474.5L132.999 446L194.499 400L235.999 327L251.499 238L262.999 175L290.499 152L341.499 103L402.499 71L464.999 106L543.499 133L549.999 181.5L542.499 230L520.499 269L516.499 286L501.499 330.5L495.999 347L497.499 354L491.499 370H495.999L498.999 371L502.499 376L495.499 430.5L487.999 475.5L649.499 601.5L659.999 561L668.499 538.5L679.499 520.5L697.999 507.5L726.499 499.5L760.999 504L793.499 499.5L854.999 484L855.999 442L833.499 445.5H779.999L760.999 433V421L754.499 403L749.499 393L764.499 377.5L744.999 351.5L732.499 342.5L728.999 328.5L707.499 313.5L702.999 302.5L708.499 299L713.999 297.5L732.499 276L735.999 261L725.999 234V188.5L739.499 152.5V68L904.999 54L977.499 139.5L1019 320L1097.5 503L1131.5 532.5L1147 562.5L1165 613L1175.5 668L1171 696L1139 728L1057.5 866L1044.5 890L1013 924.5L1001 945L991.499 970L985.499 974.5L976.499 986.5L977.499 1002.5L962.499 1019.5H922.499L865.499 1002.5L827.999 1024.5L780.999 1011L739.499 968.5L701.999 953L662.999 926L601.499 918L569.999 882.5L594.499 786.5L597.499 726L526.999 694L499.999 787.5L424.499 847L276.999 906.5H167.499Z" fill="white"/>
<path d="M648.369 597.61C649.599 593.45 651.549 589.36 651.939 585.12C653.329 569.81 654.939 554.26 662.219 540.74C674.669 517.52 693.809 501.29 719.899 495.21C726.489 493.68 734.029 495.71 741.059 496.64C756.219 498.64 771.309 502.08 786.619 498.03C797.309 495.2 808.189 493.34 818.349 488.25C827.939 483.45 838.829 483.76 849.349 483.5L849.919 484.7C848.429 485.7 846.919 486.78 845.429 487.7C842.899 489.25 839.779 490.21 837.849 492.29C824.729 506.46 812.249 521.29 805.119 539.46C796.119 562.33 797.269 585.76 803.699 609.07C804.979 613.308 806.843 617.347 809.239 621.07C810.629 623.34 812.809 623.65 815.409 621.27C840.119 598.62 866.789 578.54 894.409 559.49C921.199 541.01 950.209 527.29 980.049 515.11C988.879 511.5 998.939 510.91 1008.44 508.94C1008.74 509.77 1009.03 510.59 1009.32 511.42C1007.65 512.26 1006.01 513.78 1004.32 513.85C991.059 514.39 980.229 521.51 968.639 526.58C966.871 527.196 965.063 527.694 963.229 528.07C961.781 528.326 960.373 528.77 959.039 529.39C954.399 532.19 949.779 535.03 945.319 538.11C940.209 541.65 934.319 543.11 928.739 545.49C920.739 548.91 913.849 555.19 906.549 560.32C905.629 560.96 905.149 562.54 904.219 562.78C891.099 566.26 882.159 576.27 871.859 583.92C850.219 599.99 829.209 616.92 807.699 633.68C806.678 632.781 805.61 631.936 804.499 631.15C803.709 630.62 801.999 629.95 801.869 630.15C798.469 635.15 792.769 630.34 788.869 633.28C785.159 636.07 780.869 638.23 777.479 641.28C770.789 647.34 762.479 646.86 754.479 647.82C753.569 647.93 751.809 646.33 751.479 645.22C750.154 640.947 749.181 636.572 748.569 632.14C745.979 609.25 746.129 586.36 755.149 564.84C762.939 546.24 770.799 527.43 784.389 511.91C785.822 510.07 787.118 508.128 788.269 506.1C788.419 505.86 788.349 505.49 788.469 504.5C782.289 505.39 776.119 505.65 770.329 507.26C759.909 510.17 750.199 506.5 740.399 504.65C733.834 503.429 727.142 503.036 720.479 503.48C707.369 504.21 696.999 510.18 686.389 516.35C683.989 517.74 681.389 519.44 679.939 521.7C671.939 534.52 664.019 547.31 662.839 563.11C661.239 584.59 655.229 605 647.609 625.11C634.559 659.6 622.529 694.47 609.539 728.98C604.699 741.82 602.789 754.98 602.059 768.43C601.909 771.08 601.579 773.73 601.249 776.37C600.629 781.26 602.129 782.63 606.749 781.26C608.649 780.7 610.509 780.04 612.209 779.48C612.929 775.38 613.819 771.48 614.149 767.57C614.229 766.57 612.449 764.41 611.699 764.49C607.449 764.94 607.439 761.88 608.699 760.05C612.189 755.11 611.299 749.49 612.559 744.27C614.449 736.49 617.689 728.54 625.909 724.27C632.539 720.84 639.009 717.05 645.269 713C646.999 711.88 648.999 709.08 648.769 707.34C647.189 695.51 647.029 683.89 651.879 672.08L643.319 674.08C644.599 667.85 649.129 664.87 654.059 663.08C659.469 661.08 662.219 657.26 664.999 651.23L652.489 655.99L651.739 654.78C656.169 651.96 660.739 649.32 664.959 646.22C667.014 644.773 668.638 642.797 669.659 640.5C671.852 634.763 673.708 628.903 675.219 622.95C675.883 620.556 675.799 618.016 674.979 615.67C669.359 602.15 671.199 588.15 672.499 574.36C673.299 565.78 676.009 557.36 677.869 548.91L679.389 549.05V576.56L680.939 576.72L685.939 553.28H686.859C687.359 555.28 687.859 557.28 688.589 560.18C690.979 553.23 693.079 547.18 695.189 541.05L696.979 541.62C695.729 546.27 694.229 550.88 693.389 555.62C693.099 557.22 694.499 559.11 695.119 560.88C696.399 559.68 698.259 558.7 698.829 557.23C700.249 553.53 700.969 549.56 702.229 545.78C702.888 543.965 704.176 542.446 705.859 541.5C704.972 545.053 704.079 548.607 703.179 552.16L705.329 553.58C707.949 551.4 711.249 549.67 713.049 546.95C717.149 540.75 720.609 534.34 729.279 533.7C730.599 533.6 732.279 531.47 732.869 529.93C734.369 526.31 736.279 525.41 739.769 527.44C741.404 528.208 743.122 528.785 744.889 529.16C743.569 533.73 742.259 538.41 740.889 543.06C737.319 554.98 731.469 566.76 730.749 578.85C730.029 590.94 721.949 596.12 716.009 603.63C704.259 618.51 692.079 633.06 680.359 647.97C677.759 651.27 676.449 655.56 674.359 659.3C670.439 666.3 667.059 673.8 662.209 680.14C656.679 687.36 657.209 695.14 658.379 702.88C659.859 712.7 661.509 722.76 665.129 731.88C670.599 745.74 677.929 758.71 693.669 764C703.109 767.17 712.339 771 721.669 774.55C737.889 780.85 752.669 789.7 766.669 800.25C768.809 798.61 770.589 796.7 772.789 795.7C774.989 794.7 777.919 793.7 780.229 794.14C784.679 795.01 787.569 793.66 789.989 790.14C793.379 785.2 796.499 779.97 800.549 775.62C803.729 772.21 808.069 769.83 812.069 767.26C813.219 766.52 815.459 765.99 816.359 766.6C821.619 770.16 824.359 766.13 827.359 763.22C835.419 755.48 841.739 756.16 847.959 765.56C848.299 766.08 848.779 766.51 850.009 767.91C849.199 763.99 848.439 761.26 848.079 758.47C846.889 749.05 849.789 740.63 855.189 733.12C872.629 708.86 893.059 687.43 917.989 670.83C926.359 665.26 928.289 658.51 926.859 649.6C926.859 649.43 926.859 649.27 926.779 649.1C924.269 633.36 926.709 632.28 940.549 624.3C945.629 621.38 946.469 620.58 944.229 615.15C943.279 612.85 942.419 610.51 941.549 608.15C940.787 606.298 940.66 604.246 941.186 602.315C941.712 600.383 942.863 598.679 944.459 597.47C952.459 590.74 959.669 582.91 970.109 579.65C971.279 579.29 972.109 577.84 973.209 577.19C978.889 573.92 984.649 570.78 990.329 567.51C995.079 564.79 999.669 561.77 1004.5 559.2C1012.09 555.15 1019.81 551.34 1027.5 547.51C1028 547.324 1028.54 547.259 1029.07 547.32C1029.6 547.381 1030.11 547.566 1030.56 547.86C1026.89 550.05 1023.14 552.11 1019.56 554.46C1013.87 558.2 1008.4 562.26 1002.68 565.95C991.569 573.1 980.189 579.83 969.259 587.23C962.755 591.755 956.57 596.724 950.749 602.1C948.179 604.41 948.269 607.81 949.749 611.34C951.969 616.62 953.499 622.2 955.679 628.72C945.349 627.29 940.209 634.4 933.679 638.21C934.129 646.57 935.489 654.89 934.619 662.96C934.179 666.96 929.899 670.74 926.929 674.26C919.159 683.46 909.439 690.7 903.129 701.54C898.059 710.25 889.999 717.21 883.339 725C879.569 729.4 875.739 733.78 872.339 738.43C870.339 741.09 872.579 743.93 876.629 744.07C885.769 744.4 894.969 744.07 904.049 745C938.219 748.41 965.699 764 985.839 791.83C989.839 797.39 992.429 804.02 995.479 810.24C996.169 811.64 996.109 813.41 995.479 815.58L992.479 811.66C987.379 805.09 982.479 798.34 977.109 791.98C969.539 782.98 960.829 775.38 950.009 770.35C944.899 767.97 940.009 764.98 935.159 762.18C926.289 757.12 917.529 752.47 906.839 751.6C895.119 750.6 883.569 747.77 871.899 746.07C867.349 745.4 859.899 752.36 859.119 756.95C858.849 758.654 858.162 760.265 857.119 761.64C850.769 769.64 849.829 780.3 855.299 789C855.902 789.789 856.668 790.44 857.544 790.908C858.421 791.375 859.388 791.649 860.379 791.71C890.219 791.24 915.799 802.71 939.379 819.71C944.859 823.71 948.159 829.71 947.869 834.01C947.419 834.01 946.779 834.11 946.549 833.86C930.269 816.64 909.329 807.41 887.649 799.42C880.309 796.72 873.049 793.73 864.949 795.13C862.719 795.51 860.499 795.97 857.649 796.52C861.789 808.83 865.799 820.52 869.649 832.24C872.711 841.238 873.935 850.76 873.249 860.24C873.109 861.97 872.709 863.67 872.419 865.45C869.569 851.26 866.869 837.33 863.909 823.45C863.379 821.01 861.789 818.77 860.609 816.45C859.609 814.53 858.199 812.78 857.529 810.77C854.339 801.19 851.469 791.5 848.209 781.95C846.65 777.227 844.616 772.674 842.139 768.36C839.039 763.09 834.299 762.72 829.529 766.68C828.379 767.643 827.319 768.707 826.359 769.86C822.359 774.61 818.189 777.86 811.509 779.57C803.229 781.67 797.439 788.7 794.399 797.2C793.039 800.99 787.909 803.32 784.019 803.39C780.129 803.46 775.749 804.04 772.919 806.17C768.219 809.73 764.389 814.55 760.679 819.17C759.959 820.08 761.229 822.86 761.989 824.6C763.189 827.201 764.524 829.738 765.989 832.2C767.849 835.5 769.659 838.85 771.729 842.01C775.529 847.8 779.169 853.73 783.469 859.13C789.869 867.13 796.719 874.86 803.469 882.6C806.089 885.6 809.219 888.17 811.659 891.3C812.829 892.8 812.929 895.13 812.749 897.45C800.919 887.17 787.609 878.89 779.829 864.86C775.569 857.16 770.449 849.92 765.449 842.66C763.929 840.46 761.449 838.94 759.529 836.99C758.462 835.979 757.582 834.787 756.929 833.47C745.729 808.47 727.079 790.47 703.669 777.2C697.389 773.64 690.159 771.77 683.559 768.71C680.315 767.12 677.309 765.083 674.629 762.66C671.889 760.27 669.739 757.21 667.169 754.66C663.789 751.25 659.439 750.34 655.949 753.55C648.149 760.73 640.829 768.43 633.489 776.09C632.349 777.28 632.039 779.33 631.549 781.09C631.009 783 630.839 786.59 630.289 786.64C627.532 786.79 624.769 786.451 622.129 785.64C621.129 785.35 620.479 783.7 620.579 783.82C613.769 785.36 607.999 786.36 602.429 788.23C601.242 788.663 600.153 789.328 599.226 790.186C598.299 791.045 597.552 792.08 597.029 793.23C588.029 818.16 581.319 843.67 578.509 870.1C577.369 879.775 579.281 889.565 583.979 898.1C587.979 905.32 593.579 910.51 601.729 913.22C619.736 919.397 638.973 921.113 657.789 918.22C667.257 916.773 676.793 915.818 686.359 915.36C689.019 915.24 691.809 917.66 695.619 919.36C689.889 905.43 680.799 894.59 673.899 882.5C666.999 870.41 660.629 857.97 653.999 845.69C647.369 833.41 640.569 821.16 633.849 808.9L635.389 807.9C635.964 808.259 636.489 808.693 636.949 809.19C644.739 820.36 652.999 831.36 660.169 842.9C666.519 853.16 671.249 864.42 677.449 874.79C684.099 885.92 691.519 896.59 698.819 907.33C703.589 914.33 708.819 921.02 713.699 927.99C721.429 939.09 728.139 950.99 736.859 961.28C747.169 973.36 758.999 984.26 770.469 995.36C780.039 1004.6 791.689 1010.51 804.059 1015.21C808.339 1016.84 812.219 1019.53 816.059 1021.63C815.879 1025.91 813.989 1026.63 810.759 1025.7C806.289 1024.42 801.279 1024.23 797.359 1022.04C787.259 1016.4 777.169 1010.86 767.619 1004.04C751.819 992.76 742.279 976.39 729.479 962.74C728.719 961.93 727.799 961.27 726.529 960.18C726.009 963.02 725.589 965.37 725.049 968.34L719.429 966.79C719.259 968.14 719.079 969.54 718.809 971.6C717.149 971.25 715.449 971.25 714.129 970.54C710.529 968.54 707.469 968.11 703.489 970.41C701.489 971.59 697.739 970.35 694.969 969.57C691.969 968.72 689.219 966.99 686.259 965.93C685.179 965.54 682.889 965.6 682.689 966.08C680.799 970.75 677.459 968.58 674.689 967.78C670.058 966.454 665.507 964.862 661.059 963.01C650.959 958.72 646.169 950.4 645.289 940.01C644.979 936.33 646.749 932.47 647.759 927.83C641.619 927.6 634.649 927.21 627.679 927.08C612.239 926.79 597.959 922.23 585.799 913.08C569.209 900.63 564.489 882.42 564.659 862.6C564.809 844.81 571.659 828.49 576.349 811.74C581.439 793.68 587.129 775.74 592.299 757.74C593.749 752.65 596.219 746.57 594.619 742.28C593.199 738.44 586.939 736.28 582.619 733.71C576.739 730.31 570.529 727.45 564.619 724.07C559.574 721.238 554.687 718.133 549.979 714.77C545.409 711.46 535.979 708.32 528.389 708.31C527.929 716.9 527.899 725.54 526.909 734.07C525.219 748.56 521.519 762.91 513.729 775.07C506.359 786.57 496.259 796.31 487.359 806.82L486.009 805.95C487.299 803.3 488.579 800.64 489.859 797.95L488.859 796.52L482.069 799.91C481.809 799.5 481.209 798.53 480.589 797.57C480.519 797.47 480.329 797.44 479.929 797.26L476.129 801.69C475.499 799.21 475.059 797.5 474.559 795.56C469.109 797.56 469.049 807.51 460.379 805.64C460.209 803.13 460.039 800.72 459.879 798.31L458.519 797.5L447.829 812.17C448.279 808.9 448.659 806.17 449.039 803.48L447.809 802.83L440.859 814.08L439.969 813.83L441.969 802.56L441.219 802.07L424.449 821.88L423.449 821.49C426.449 815.36 429.499 809.24 433.179 801.77C424.059 811.33 415.319 819.31 409.679 829.99C408.679 831.78 406.779 832.99 405.679 834.76C403.339 838.46 401.249 842.31 398.679 846.76V830.76C391.169 837.48 387.929 846.07 383.679 853.91C379.379 854.15 378.359 852.13 379.429 848.42C380.629 844.3 381.749 840.15 382.899 836.01L381.659 835.31L364.849 863.31L360.289 862.73C361.869 856.1 363.419 849.55 364.979 843L363.669 842.24L344.529 872.68L343.179 872.14L353.319 845.64L352.069 844.95L338.189 869.76L335.769 862.76C327.369 866.5 327.239 875.57 322.179 882.76C322.029 879.51 321.939 877.49 321.849 875.47L320.979 875.2L318.459 883.2L317.809 883.27L317.209 873.79L316.269 874.49L310.689 867.26C310.299 867.77 309.459 868.86 308.019 870.76C307.469 860.7 316.589 854.17 315.099 844.97L313.679 844.25L296.309 873.25L294.389 872.56L299.509 853.68C297.039 851.19 294.779 850.86 292.699 855.02C290.929 858.54 288.699 861.83 286.699 865.22L285.269 864.5C287.689 859.5 290.109 854.42 293.099 848.17L286.219 851.68C285.509 848.26 283.879 845.04 284.479 842.31C285.66 836.81 287.556 831.488 290.119 826.48C297.239 812.76 304.859 799.29 312.259 785.72C312.567 785.042 312.827 784.344 313.039 783.63L311.359 782.78C303.826 796.74 296.302 810.693 288.789 824.64C287.299 827.41 286.089 830.36 284.359 832.97C273.857 848.569 265.309 865.398 258.909 883.08C258.239 884.99 256.909 886.64 255.809 888.41L254.369 888.3C253.036 882.3 251.702 876.3 250.369 870.3L248.569 870.14C247.929 871.84 247.139 873.5 246.669 875.25C245.039 881.25 241.079 883.93 235.069 885.01C230.319 885.86 225.829 888.01 221.169 889.46C219.819 889.87 217.869 890.28 216.889 889.63C211.549 886.14 206.649 888.54 201.709 890.38C198.949 891.38 196.319 892.78 193.629 894L193.969 895.32C197.109 894.6 200.239 893.82 203.389 893.16C206.539 892.5 209.659 890.62 211.789 895.04C212.279 896.04 214.359 896.31 216.889 897.44C215.359 898.75 214.209 900.57 213.179 900.5C203.089 899.85 193.809 903.03 184.469 906.08C183.889 906.27 183.279 906.41 181.829 905.63L189.439 897.39L189.019 896.39L174.719 901.05L174.009 900.13C177.099 897.8 180.099 895.36 183.289 893.19C186.479 891.02 189.929 889.06 192.919 886.34C183.159 886.17 176.919 894.9 167.459 895.34L172.339 890.04L171.819 889.17C170.819 889.63 169.769 890.03 168.819 890.58C167.869 891.13 166.879 891.89 165.909 892.58L164.629 891.06L178.929 878.25C169.789 877.6 162.519 881.93 154.489 887.81C157.309 881.08 162.359 878.58 166.919 875.57C170.109 873.46 170.109 873.46 167.709 869.7L156.879 876.1L155.879 875C159.799 868.61 169.489 867.65 172.139 859.31C163.409 857.76 158.069 864.12 150.329 867.38C154.329 857.73 164.329 855.93 169.449 848.71L150.449 857.27C150.729 856.11 150.609 854.27 151.449 853.39C157.389 847.58 161.129 839.62 168.879 835.57C169.632 835.189 170.234 834.565 170.589 833.8C170.999 832.493 171.307 831.155 171.509 829.8C170.159 829.95 168.809 830.04 167.509 830.28C166.896 830.477 166.311 830.752 165.769 831.1L164.589 829.94C166.589 827.94 168.319 825.64 170.589 824.13C173.589 822.13 177.249 821.05 180.269 819.04C181.669 818.12 182.269 815.93 183.169 814.31L181.579 813L171.669 819L170.669 818.21C171.579 817.02 172.269 815.54 173.429 814.68C176.099 812.68 179.169 811.26 181.729 809.17C183.139 808.01 186.059 807.04 183.729 803.68C183.299 803.04 187.089 799.13 189.339 797.2C191.749 795.13 195.489 794.2 194.469 789.34L190.069 790.92L189.359 790.1C191.289 788.29 193.019 786.17 195.199 784.73C198.789 782.35 202.859 780.66 206.359 778.16C208.479 776.65 209.919 774.16 211.659 772.16C213.889 769.53 216.269 767 218.299 764.23C220.189 761.63 221.509 758.61 223.449 756.06C225.139 753.86 227.019 751.32 229.449 750.26C233.129 748.63 234.659 746.9 233.649 742.72C232.409 737.63 234.509 733.17 237.999 729.55C241.099 726.33 244.559 723.45 247.899 720.39C245.119 712.95 245.899 711.21 253.829 708.52C258.069 707.09 262.509 706.23 266.829 704.87C268.558 704.14 270.209 703.238 271.759 702.18L271.299 700.54L255.299 702.7C258.299 698.82 258.299 698.82 275.969 695.35C275.379 687.35 278.969 680.85 284.659 675.35C287.109 672.98 289.379 670.41 291.979 668.24C292.389 667.89 294.599 668.83 295.199 669.71C299.199 675.62 302.909 681.71 307.009 687.61C308.304 689.247 310.038 690.482 312.009 691.17C322.389 695.01 333.259 694.64 344.079 694.47C344.737 694.337 345.408 694.277 346.079 694.29C355.289 696.34 360.569 691.19 365.079 684.29C370.139 676.52 375.419 668.88 381.419 659.99C377.219 659.99 374.139 659.23 371.649 660.11C358.129 664.72 348.279 657.73 339.999 649.16C332.229 641.16 328.289 630.7 328.209 619.21C328.18 617.551 328.427 615.898 328.939 614.32C330.319 610.26 332.939 609.55 336.829 611.97C332.829 629.41 343.339 650.23 363.129 655.61C364.579 655.907 366.06 656.028 367.539 655.97C370.199 656.03 373.169 655.21 375.469 656.12C382.999 659.12 386.049 654.64 389.319 649.19C399.439 632.37 409.239 615.31 420.319 599.19C426.319 590.39 434.449 582.88 442.219 575.41C456.119 562.05 469.389 548.51 474.879 529.15C481.649 505.24 484.879 480.79 488.159 456.25C491.339 432.39 496.209 408.76 500.159 385C500.559 382.59 499.159 379.95 499.039 377.39C498.949 375.93 499.649 374.39 499.989 372.93C501.449 373.74 503.799 374.25 504.189 375.42C505.014 377.915 505.257 380.566 504.899 383.17C502.399 400.93 499.759 418.67 496.979 436.39C495.819 443.76 493.309 451.01 492.979 458.39C492.329 470.98 491.719 470.95 503.629 475.16C511.999 478.16 521.079 479.08 529.839 480.94C531.469 481.28 533.099 481.59 534.719 481.94C543.719 484.02 545.719 486.7 545.079 495.88C544.879 498.69 544.249 501.51 544.359 504.31C544.569 510.13 548.409 513.59 554.179 514.07C559.149 514.454 564.096 515.095 568.999 515.99C575.445 517.123 581.189 520.738 584.999 526.06C593.789 538.19 602.109 550.72 611.619 562.25C620.889 573.49 630.539 584.56 642.799 592.9C644.359 593.9 645.359 595.84 646.609 597.34L648.369 597.61ZM832.199 490.99L831.089 489.73C829.175 490.125 827.285 490.629 825.429 491.24C816.622 494.64 807.839 498.113 799.079 501.66C798.07 502.202 797.174 502.932 796.439 503.81C777.319 523.11 766.509 547.16 758.059 572.37C750.719 594.27 752.159 616.69 756.249 639.01C756.479 640.24 759.169 642.22 760.129 641.93C766.929 640.013 773.585 637.62 780.049 634.77C786.289 631.85 791.479 626.77 798.889 626.21C800.349 626.11 801.729 624.9 803.179 624.21C791.119 600.97 789.589 576.8 793.479 552.05C797.509 526.36 810.729 506.06 832.199 490.99ZM592.199 546.84C588.339 542.26 584.659 538.17 581.289 533.84C576.909 528.2 571.139 525.6 564.179 524.84C557.429 524.09 550.659 523.27 544.019 521.84C538.569 520.71 536.019 516.48 536.069 511.16C536.127 507.004 536.552 502.861 537.339 498.78C538.179 494.17 536.339 491.93 531.959 491.15C518.169 488.7 504.399 486.2 490.199 483.65V507.23C495.299 505.56 501.269 506.28 501.319 499.97L520.999 508.69L521.499 507.69C522.169 509.19 522.849 510.69 523.619 512.39L526.619 511.51L533.559 525.86L537.989 524.36C538.529 528.36 538.989 531.92 539.549 535.83L541.679 524.18H543.469C544.149 527.49 544.839 530.8 545.399 533.55L555.799 526.31C556.799 528.71 557.549 530.31 558.319 532.12L561.419 530.28L563.729 534.91C567.189 532.6 569.489 533.2 571.059 537.13C571.796 538.643 573.074 539.824 574.639 540.44C576.119 541.01 577.989 540.56 579.689 540.56V541.67L580.929 540.33L588.859 549.23L592.199 546.84ZM366.549 699.02L364.999 697.91C362.059 701.65 358.789 705.18 356.249 709.17C350.749 717.8 345.669 726.7 340.329 735.44C337.649 739.82 334.769 744.09 331.879 748.56C338.819 749.23 341.879 745.5 344.449 740.56C347.819 734.1 351.919 728.02 355.339 721.56C359.289 714.17 362.829 706.55 366.549 699.02ZM669.729 950.3C664.209 943.66 660.209 937.3 661.529 929.04H655.809C655.999 938.61 660.999 946.36 669.729 950.3ZM601.399 562.57L593.399 548.37L591.539 549.18C592.319 553.11 593.099 557.04 593.539 559.48L601.399 562.57ZM613.219 576.11L603.539 562.73C602.569 570.41 604.219 572.79 613.219 576.11ZM626.219 589.76L618.219 580.76L616.669 582.16C620.449 583.78 617.279 591.71 626.259 589.76H626.219ZM729.999 786.46C730.999 779.74 725.819 780.76 722.149 779.87L729.999 786.46ZM323.219 766.68L321.779 765.93L314.249 779.41L315.369 780.03L323.219 766.68Z" fill="black"/>
<path d="M980.099 277.91L975.439 281.83L974.439 281.29C975.329 279.11 976.229 276.93 977.109 274.75C978.109 272.35 978.339 270.68 974.679 270.75C973.299 270.75 971.679 269.37 970.539 268.23C968.875 266.323 967.326 264.32 965.899 262.23C966.059 259.63 966.279 256.23 966.489 252.72L964.699 252.34C961.379 263.34 959.089 274.75 952.029 284.06L950.629 283.48C951.629 281.48 952.489 279.36 953.499 277.35C960.389 263.67 964.199 249.45 961.039 234.03C959.699 227.46 958.299 220.91 957.039 214.33C956.229 210.18 954.039 209.26 950.169 210.65C948.642 211.298 946.95 211.456 945.329 211.1C939.409 209.1 934.639 211.26 930.909 215.35C924.909 221.91 919.449 228.94 913.719 235.82L912.559 234.9L909.759 239.43C908.549 233.43 913.479 231.52 915.369 226.8C913.109 227.69 911.729 228.15 910.429 228.8C906.019 230.88 901.769 229.71 898.659 225.99C897.413 224.726 895.836 223.839 894.109 223.43C891.469 222.69 890.479 218.1 892.309 214.69L872.249 216.46C874.019 212.36 875.249 209.46 876.809 205.87C874.179 205.64 871.659 205.2 869.129 205.23C864.709 205.23 863.319 203.23 865.409 199.23C866.312 197.72 867.294 196.258 868.349 194.85L862.459 196.66L861.819 195.89C863.168 194.628 864.447 193.293 865.649 191.89C866.859 190.105 867.977 188.259 868.999 186.36C860.789 185 858.529 193.62 851.059 194.24C853.059 191.42 854.489 189.44 856.789 186.24L845.279 191.92L844.429 191.26L849.599 182.96C842.159 183.07 840.709 178.44 841.099 172.6L832.389 171.6L841.389 164.06C841.259 163.54 841.139 163.06 841.009 162.5C835.949 162.43 830.319 163.93 827.519 157.42C835.459 147.9 846.019 140.3 857.519 133.49L860.589 137.39L876.379 131.08C874.909 132.81 872.979 135.08 870.519 137.93C879.859 136.76 884.719 126.46 894.579 128.29C893.939 130.1 893.359 131.72 892.249 134.84L904.409 126.2L905.019 126.88L894.069 136.8L894.659 138.18L905.519 136.24C905.829 139.24 906.139 142.34 906.519 145.76C904.659 147.36 902.059 149.07 900.289 151.36C899.169 152.82 899.399 155.27 898.799 157.2C898.199 159.13 897.319 160.95 896.189 163.75C901.299 160.36 905.869 157.36 910.409 154.36C914.539 151.54 918.679 149.36 923.119 153.36L917.919 162.88H924.619L925.459 164.05L911.139 173.92L912.139 175.59L925.479 168.36C924.229 176.12 917.719 179.99 912.479 184.83L913.159 186.01L925.159 183.2C923.569 186.75 921.939 190.38 920.159 194.41L927.159 195.79C925.639 197.79 924.409 199.46 922.399 202.15L929.399 200.74L922.859 210.46L923.619 211.84C925.419 211.23 927.229 210.65 928.999 209.99C932.509 208.68 935.999 207.38 939.479 205.99C940.749 205.46 942.799 204.62 942.849 203.82C942.82 203.049 942.637 202.292 942.311 201.593C941.984 200.894 941.521 200.267 940.949 199.75C935.949 195.36 935.189 191.83 938.699 186.14C939.495 184.944 940.028 183.593 940.262 182.176C940.497 180.759 940.428 179.308 940.059 177.92C939.259 173.77 940.889 169.14 941.519 164.36L935.259 160.15L930.809 162.44C932.029 157.44 940.039 156.44 936.959 149.68L924.999 157.81L924.559 157.36L933.469 147.45L927.819 146.45C928.589 143.93 929.329 141.45 930.079 138.99L929.159 137.99L921.099 143.36L928.999 124.96L927.259 123.53C925.919 124.53 924.139 125.25 923.329 126.53C921.759 129.1 920.779 131.67 916.939 129.35C915.939 128.74 913.939 129.73 911.799 130.09C912.799 120.09 922.159 115.63 925.099 107.3C922.759 109.3 920.379 111.3 918.099 113.37C915.819 115.44 913.729 116.49 910.659 114.77C909.419 114.08 907.529 114.53 905.439 114.43V104.59L894.639 112.36C894.339 102.02 904.799 96.58 901.849 86.17C891.369 100.73 883.849 117.08 868.939 127.41C874.789 115.79 884.599 106.69 890.219 95.02L872.219 111.63L871.029 110.52C871.829 107.23 872.629 103.93 873.569 100.09L868.959 100.85C871.059 98.31 872.959 96.02 874.809 93.74L873.999 92.36C869.919 94.76 865.629 96.89 861.869 99.72C860.479 100.72 859.869 103.46 859.739 105.47C859.529 107.91 860.419 110.47 860.279 112.91C860.139 115.35 860.209 118.8 858.709 120.44C851.279 128.59 843.519 136.44 835.579 144.1C833.219 146.477 830.377 148.322 827.245 149.51C824.112 150.698 820.762 151.203 817.419 150.99C815.954 151.016 814.522 151.43 813.269 152.19C797.619 160.82 781.269 160.65 764.429 156.59C757.549 154.97 750.299 154.8 743.199 154.36C742.119 154.29 740.429 155.94 739.829 157.18C729.749 178.18 725.159 200.3 728.759 223.55C729.949 231.18 732.299 238.7 734.669 246.08C740.669 264.69 731.979 288.08 714.059 298.03C712.304 298.876 710.338 299.182 708.409 298.91C717.649 295.06 722.359 286.82 728.219 279.8C735.129 271.51 735.949 262.2 731.219 252.8C719.679 229.83 718.419 206.36 726.439 182.21C729.439 173.12 732.599 164.08 735.979 154.21C709.979 148.46 694.629 132.21 692.299 105.32C691.069 91.19 695.459 78.48 707.699 68.32V77.6L709.009 77.95C709.679 76.47 710.429 75.02 711.009 73.5C711.519 72.14 711.399 70.3 712.289 69.38C725.779 55.29 741.149 44.9 761.829 47.38C771.519 48.55 781.369 50.11 790.569 53.2C807.049 58.75 822.819 55.2 838.649 51.37C854.319 47.62 869.649 42.37 885.439 39.26C910.309 34.39 935.059 36.57 959.569 43.02C983.149 49.22 1003.33 61.26 1021.57 77.12C1029.02 83.62 1033.21 92.12 1036.09 101.19C1045 129.18 1053.32 157.45 1055.08 187.05C1055.65 196.58 1054.19 206.24 1053.61 215.83C1053.45 218.57 1053.11 221.29 1053.84 224.35C1055.62 221.45 1057.3 218.49 1059.19 215.66C1062.14 211.23 1065.1 206.8 1068.31 202.56C1070.75 199.32 1074.36 199.45 1076.17 203C1087 224.36 1098.37 245.57 1099.88 270.21C1100.64 282.47 1102.04 294.78 1095.39 306.21C1094.39 307.98 1094.39 310.37 1093.98 312.49C1093.17 317.22 1090.98 318.71 1086.32 317.7C1082.97 316.96 1082.66 318.63 1083.4 321.35C1084.4 325.14 1084.33 325.16 1079.95 326.15C1085.65 334.7 1091.22 343.15 1096.87 351.5C1101.8 358.79 1106.93 365.93 1111.74 373.29C1113.17 375.47 1113.88 378.13 1114.74 380.62C1115.35 382.34 1115.3 384.42 1116.26 385.86C1122.57 395.41 1119.33 404.24 1114.58 413.04C1114.36 413.48 1114.19 413.938 1114.06 414.41C1114.06 414.53 1114.15 414.7 1114.2 414.84C1119.2 412.36 1122.64 413.06 1126.89 417.07C1129.89 419.86 1133.12 422.34 1136.14 425.07C1136.93 425.897 1137.54 426.877 1137.94 427.95C1144.23 442.32 1148.02 457 1145.81 473.02C1145.09 478.21 1142.99 483.24 1143.97 488.97C1144.51 492.12 1142.21 496.54 1139.86 499.23C1135.06 504.73 1131.51 511.48 1124.6 515.14C1122.49 516.26 1121.3 519.14 1119.47 521.48C1126.53 526.72 1133.53 531.85 1140.47 537.12C1141.6 538.007 1142.46 539.201 1142.93 540.56C1144.06 544.03 1144.93 547.56 1145.82 551.13C1147.82 558.79 1150.56 566.35 1151.55 574.13C1152.55 582.32 1157.55 588.68 1159.89 596.13C1161.32 600.59 1162.51 605.13 1164 609.57C1167.29 619.37 1171.85 628.9 1173.74 638.95C1175.57 648.64 1180.94 658.32 1176.52 668.72C1176.39 669.163 1176.38 669.629 1176.47 670.08C1176.56 670.53 1176.76 670.952 1177.05 671.31C1180.82 674.77 1179.87 678.66 1178.65 682.84C1177.65 686.15 1177.4 689.65 1176.59 693.02C1176.19 694.72 1175.7 696.68 1174.59 697.89C1166.53 706.5 1158.48 715.14 1150.07 723.4C1140.7 732.59 1133.07 742.49 1128.18 755.07C1120.58 774.77 1109.95 793.37 1103.28 813.33C1096.85 832.63 1086.43 849.24 1075.35 865.72C1058.47 890.76 1038 912.56 1014.73 931.77C1009.56 935.968 1004.9 940.757 1000.85 946.04C998.309 949.41 997.689 954.19 995.989 958.25C995.085 960.455 993.689 962.425 991.909 964.01C990.579 952.01 997.369 942.78 1001.97 933.15C993.559 932.98 988.299 937.9 982.899 943.31C977.199 949.02 970.589 953.82 963.019 960.15L980.449 961.52C979.919 964.22 979.279 967.03 978.859 969.87C978.824 971.077 978.918 972.283 979.139 973.47C980.689 973.28 982.509 973.55 983.729 972.82C987.099 970.82 990.209 968.41 993.669 965.98C995.089 970.86 993.609 974.26 990.089 976.86C987.419 978.86 984.579 980.59 981.889 982.54C977.889 985.46 976.949 989.34 978.429 994.01C980.709 1001.24 979.759 1005.43 973.719 1011.7C974.422 1008.49 974.94 1005.24 975.269 1001.97C975.379 999.97 975.109 997.43 973.919 996.11C969.399 991.11 969.149 990.27 973.049 984.49C973.299 984.11 973.469 983.69 974.189 982.31C972.584 982.807 971.024 983.443 969.529 984.21C965.019 987.21 960.839 990.8 956.059 993.21C952.485 994.887 948.613 995.835 944.669 996C936.669 996.51 928.669 996.33 920.669 996.51C905.019 996.87 901.429 994.33 895.749 978.3L873.399 995.04L869.329 996.85C870.609 998.29 871.619 1000.2 873.209 1001.07C877.209 1003.21 880.879 1003.97 884.969 1000.17C888.289 997.08 892.159 999.86 895.409 1001.85C899.809 1004.53 903.979 1007.58 908.479 1010.07C915.129 1013.76 921.899 1013.68 929.089 1010.86C937.999 1007.37 947.199 1004.57 956.359 1001.77C958.009 1001.26 961.449 1001.77 961.739 1002.6C962.445 1004.74 962.306 1007.08 961.349 1009.12C959.349 1012.74 955.269 1015.64 954.499 1019.35C953.199 1025.59 948.679 1027.41 944.289 1030.09C941.419 1031.85 938.739 1033 935.469 1031.3C934.869 1031 934.184 1030.91 933.529 1031.06C917.909 1035.67 904.219 1028.46 890.109 1023.95C884.319 1022.09 878.559 1020.1 872.879 1017.95C870.789 1017.14 867.019 1017.42 868.459 1013.04C868.629 1012.52 867.199 1011.36 866.369 1010.66C864.729 1009.26 862.989 1007.98 860.539 1006.06C858.089 1007.99 855.139 1010.63 851.899 1012.82C845.899 1016.88 839.899 1021.08 833.439 1024.44C830.139 1026.16 825.949 1026.19 821.699 1027.07C821.699 1021.7 824.569 1019.79 827.899 1019.52C836.189 1018.83 841.789 1013.66 847.649 1008.76C869.359 990.66 887.749 969.3 906.529 948.35C921.969 931.13 937.429 913.9 952.079 896.02C961.779 884.19 970.409 871.51 981.829 861.14C989.589 854.14 997.019 846.67 1004.9 839.75C1027.41 819.99 1050.24 800.59 1072.59 780.65C1081.77 772.46 1089.59 762.77 1098.82 754.65C1109.35 745.31 1119.6 734.5 1132.02 728.71C1147.25 721.6 1153.71 708.64 1162.02 696.33C1163.23 694.53 1164.02 692.33 1165.62 690.96C1171.62 685.81 1171.35 678.89 1171.93 671.96C1173.12 657.646 1170.77 643.259 1165.08 630.07C1162.54 624.01 1161.72 617.25 1159.7 610.95C1158.02 605.69 1156.32 600.27 1153.57 595.55C1148.47 586.82 1147.07 577.16 1144.93 567.6C1143.2 559.85 1140.93 552.23 1138.71 544.6C1138.35 543.312 1137.64 542.151 1136.65 541.25C1129.89 535.63 1123.18 529.93 1116.12 524.71C1113.55 522.81 1110.12 522.09 1107 520.92C1103.6 519.63 1100.06 518.65 1096.77 517.14C1091.49 514.71 1086.5 511.76 1080.22 514.04C1078.64 514.62 1076.04 513.97 1074.53 512.95C1066.77 507.72 1057.92 507.75 1049.17 506.95C1046.94 506.75 1044.69 505.47 1042.69 504.29C1038.84 502.02 1035.27 499.29 1031.38 497.08C1026.24 494.21 1023.08 490.22 1020.46 484.77C1016.87 477.657 1012.39 471.033 1007.12 465.06C999.119 455.62 995.709 444.7 993.179 432.81C988.779 412.1 988.419 391.01 985.549 370.19C983.369 354.22 981.049 338.36 978.999 322.36C978.489 318.43 979.099 314.36 978.749 310.36C978.489 307.42 977.379 304.57 976.879 301.64C976.661 300.182 976.718 298.696 977.049 297.26C978.389 290.95 979.869 284.67 981.299 278.38L980.099 277.91ZM740.689 77.07C730.599 74.43 722.539 77.5 715.229 83.47C714.765 83.6341 714.266 83.678 713.78 83.5975C713.294 83.5171 712.836 83.315 712.449 83.01C710.369 80.68 704.779 80.79 703.679 83.67C700.449 92.14 701.429 100.83 702.879 109.5C703.568 107.524 703.946 105.452 703.999 103.36C704.299 99.58 704.179 95.68 705.069 92.03C706.069 87.74 709.259 87.03 712.729 89.24C711.979 91.18 711.259 93.05 710.549 94.92L712.119 95.97C713.927 94.2086 715.823 92.5398 717.799 90.97C718.689 90.31 720.369 89.83 721.209 90.24C722.049 90.65 722.209 92.36 722.209 93.48C721.989 98.58 721.569 103.66 721.209 108.75L722.779 108.91C724.249 103.08 723.149 95.96 730.609 92.05C729.909 98.53 729.319 104.05 728.719 109.62L730.079 109.87L733.649 98.59C735.149 101.32 734.939 104.2 736.269 105.8C737.599 107.4 740.479 107.8 743.189 108.95V114.6C746.899 108.51 744.109 101.04 750.439 95.32L749.749 107.32L751.129 107.96L756.129 99.67C758.709 105.21 753.959 110.78 758.389 116.01C760.299 110.93 761.939 106.52 763.589 102.11L764.449 102.63C765.019 105.69 765.599 108.75 766.379 112.86L771.509 102.23L772.809 102.75V110.36L777.069 106.77C777.779 109.42 778.349 111.53 778.879 113.5L782.489 107.65C783.699 109.43 784.929 111.19 786.099 112.99C786.493 113.635 786.847 114.303 787.159 114.99C788.969 111.61 790.739 108.28 792.539 104.99C793.508 103.515 794.361 101.967 795.089 100.36C797.249 94.22 799.229 88.03 801.429 81.41C797.539 83.09 792.999 84.78 788.729 86.98C784.789 88.98 782.729 88.04 782.329 83.89L763.829 86.36C762.036 85.263 760.02 84.5798 757.929 84.36C756.759 84.15 754.799 84.23 754.539 83.61C752.959 79.87 750.329 80.67 747.539 81.5C743.689 82.6 741.239 80.79 740.689 77.07ZM1105.23 442.46L1114.11 443.82C1115.53 446.4 1117.11 449.39 1118.8 452.38C1117.8 444.2 1122.35 435.82 1118.27 427.23C1115.13 428.115 1112.03 429.16 1109 430.36C1102.84 433.12 1097.31 437.61 1090 436.98L1079.7 436.13C1075.52 439.47 1070.5 443.18 1065.84 447.3C1061.51 451.12 1057.15 451.16 1051.84 448.49C1052.27 440.99 1052.71 433.44 1053.2 425.06L1046.12 429.71C1048.55 434 1045.97 436.59 1043.02 439.06C1039.91 441.66 1037.4 444.49 1039.02 448.97L1047.42 443.04L1048.72 444.04L1039.45 463.67L1043.71 461.62C1045.81 466.46 1037.63 472.45 1044.71 475.56C1053.98 468.51 1062.42 461.85 1071.16 455.56C1073.28 454.04 1076.33 453.56 1079.04 453.19C1081.75 452.82 1085.19 454.19 1087.19 452.96C1091.27 450.48 1094.6 446.76 1098.19 443.59C1101 448.58 1101.11 448.56 1105.23 442.46ZM1056.85 423.46C1057.15 418.4 1057.78 414.35 1057.5 410.36C1057.27 406.93 1055.56 403.6 1055.35 400.17C1055.2 397.8 1055.71 394.28 1057.28 393.11C1060.76 390.53 1065.11 389.11 1069.89 386.85L1080.33 397.85L1082.05 396.66C1080.21 393.09 1078.29 389.57 1076.58 385.95C1075.34 383.33 1073.11 380.32 1073.58 377.95C1074.58 372.73 1077.13 367.81 1079.01 362.76C1079.4 361.76 1080.23 360.46 1079.94 359.62C1077.77 353.28 1080.5 349.53 1086.94 347.23C1085.37 344.89 1084.12 343 1082.33 340.32C1079.91 346.64 1077.93 351.91 1075.89 357.15C1072.49 365.87 1068.65 372.84 1057.2 374.07C1047.02 375.16 1037.2 379.75 1027.34 383.29C1024.06 384.671 1021.1 386.714 1018.65 389.29C1014.75 393.08 1011.75 397.86 1007.65 401.37C1000.65 407.37 999.539 410.03 1002.82 418.83C1004.3 415.5 1005.64 412.29 1007.14 409.16C1011.56 399.98 1018.75 392.87 1028.36 390.86C1035.73 389.32 1042.08 386.46 1048.62 383.37C1050.24 382.787 1051.91 382.368 1053.62 382.12L1054.22 383.27L1048.41 388.08L1049.65 388.44C1048.33 392.34 1047.01 396.24 1045.5 400.74C1050.02 400.51 1052.5 402.07 1051.05 405.94C1048.51 412.56 1050.48 417.7 1056.85 423.42V423.46ZM825.229 125.36C828.829 124.36 831.289 123.87 833.569 122.96C834.689 122.51 836.119 121.39 836.329 120.35C836.899 117.63 836.749 114.76 837.149 111.99C837.389 110.25 837.559 107.83 838.699 106.99C843.216 103.707 847.939 100.718 852.839 98.04C857.569 95.44 862.839 93.74 867.399 90.94C871.489 88.45 874.889 84.86 878.769 82C882.769 79 882.909 79.15 881.239 74C873.389 83 864.629 90.52 853.669 95.09L852.669 94.09L857.469 88.25L852.739 88.92L853.939 83.02C847.479 84.37 841.119 85.75 834.739 87.02C834.029 87.16 833.199 86.48 832.409 86.39C830.994 86.0946 829.537 86.0574 828.109 86.28C824.109 87.43 820.209 90.16 816.379 89.96C809.569 89.6 805.559 93.29 801.459 97.41C798.459 100.48 797.459 103.74 801.589 106.77L803.989 105.44C803.799 109.01 803.629 112.16 803.449 115.3C808.639 106.5 808.889 106.21 813.179 105.3C809.299 115.12 809.299 115.12 813.389 117.61C814.609 110.82 821.309 107.2 822.109 99.88C822.509 96.23 826.479 94.16 830.639 94.73C837.109 95.61 839.149 100.17 835.519 105.44C833.439 108.44 830.919 111.22 829.239 114.44C827.559 117.66 826.679 121.36 825.229 125.36ZM1071.77 203.02C1071.45 203.183 1071.16 203.377 1070.88 203.6C1070.35 204.004 1069.88 204.482 1069.48 205.02C1059.75 221.02 1051.29 237.42 1051.48 256.86C1051.53 258.865 1051.43 260.87 1051.18 262.86C1050.03 270.93 1050.07 271.41 1053.81 278.86C1056.81 271.11 1057.96 260.01 1055.65 249.93C1054.65 245.55 1055.97 244.12 1059.52 243.93C1060.29 240.87 1060.35 237.77 1061.79 235.57C1063.91 232.34 1065.39 229.24 1065.54 225.34C1065.54 224.48 1067.78 222.97 1068.92 223.03C1075.73 223.39 1078.16 220.1 1075.61 213.67C1074.27 210.12 1073.07 206.56 1071.77 203.02Z" fill="black"/>
<path d="M498.799 336.46C499.929 332.9 500.429 328.95 502.329 325.85C508.019 316.54 508.459 306.04 509.909 295.77C512.479 277.6 517.569 260.58 528.389 245.27C537.139 232.87 539.539 217.99 540.829 203.15C541.637 193.86 541.971 184.534 541.829 175.21C541.729 169.21 540.319 163.27 539.499 157.29C532.499 157.71 526.369 158.45 520.289 158.34C504.199 158.04 489.289 152.68 474.719 146.51C466.909 143.21 459.119 139.87 451.439 136.28C448.507 134.736 445.699 132.967 443.039 130.99C436.199 126.4 429.269 121.93 422.649 117.04C419.779 114.91 417.509 111.92 415.119 109.19C412.729 106.46 411.009 103.45 408.449 101.19C405.619 98.67 402.349 96.68 398.099 99.19C396.929 99.88 394.759 98.71 393.039 98.67C391.319 98.63 388.109 98.41 387.839 99.13C385.589 105.07 381.839 102.13 378.549 100.93C376.549 100.19 374.849 98.53 372.829 97.93C370.809 97.33 368.289 97.51 366.009 97.35L365.629 99.29L377.629 103.47L352.349 121.23C351.429 124.03 350.059 128.23 348.599 132.64L345.449 130.28L341.609 134.97L335.479 132.6C335.659 136 335.789 138.54 335.979 142.16L331.609 138.91C330.439 142.46 329.349 145.78 328.269 149.08C325.429 148 321.559 151.24 319.979 156.08C319.161 158.098 318.1 160.009 316.819 161.77C311.589 170.02 306.109 178.11 301.179 186.53C299.399 189.58 298.329 191.98 295.439 189.53C294.529 192.69 294.239 196.33 292.499 199.03C290.499 202.11 286.899 200.76 285.189 198.57C280.079 192 272.579 185.96 278.299 175.87C278.939 174.74 278.229 171.87 277.169 170.93C274.939 168.93 273.669 171 272.169 172.83C255.419 193.54 259.169 222.33 269.329 239.83C270.069 241.1 271.519 241.96 273.409 243.73C272.409 246.01 270.799 249.25 269.409 252.56C267.889 256.16 266.619 259.79 270.019 263.18C273.149 266.31 276.319 264.96 279.669 263.6C281.507 263.027 283.391 262.612 285.299 262.36L286.199 263.62C284.099 265.76 282.269 268.26 279.859 269.96C274.319 273.85 271.399 278.04 270.569 285.63C269.099 299.07 265.109 312.28 261.569 325.43C259.119 334.55 256.569 343.83 252.439 352.26C246.279 364.89 238.709 376.82 231.739 389.05C224.069 391.31 224.739 399.64 220.629 404.27C214.75 410.927 208.168 416.928 200.999 422.17C187.499 431.96 171.609 437.36 156.559 444.17C150.489 446.92 143.279 447.06 136.739 448.91C128.279 451.29 119.999 454.28 111.579 456.85C103.429 459.34 95.2691 461.8 87.0291 463.97C65.9091 469.53 46.3591 478.23 29.9491 492.88C25.0691 497.23 21.3191 502.88 17.1991 507.71C20.0091 493.88 25.8692 481.17 39.3192 474.3C50.4331 468.74 61.9812 464.095 73.8492 460.41C91.8492 454.67 110.139 449.98 129.329 444.55C126.759 441.68 124.819 439.55 122.919 437.38C117.079 430.73 113.989 423.79 118.009 414.67C121.059 407.76 121.509 399.67 128.009 394.37C123.739 386.37 122.059 378.15 121.729 369.31C121.099 352.31 128.439 339.62 141.839 330.31C149.309 325.14 157.669 321.22 165.769 317.01C173.719 312.86 181.889 309.14 189.879 305.07C196.009 301.96 205.639 303.07 208.749 306.68C216.749 301.68 224.599 296.85 232.429 291.95C235.759 289.86 239.429 278.21 238.009 274.37C233.427 262.524 232.307 249.619 234.779 237.16C236.889 226.59 243.179 218.99 250.979 212.16C252.494 210.582 253.65 208.696 254.369 206.63C255.285 204.524 255.911 202.304 256.229 200.03C256.889 195.29 257.369 190.51 257.669 185.73C257.849 182.73 256.799 179.53 257.589 176.79C260.879 165.41 258.129 154.08 257.879 142.74C257.129 109.15 265.879 78.58 286.929 52C290.655 47.3031 294.734 42.897 299.129 38.82C303.129 35.11 307.769 32.06 312.129 28.73C312.509 28.44 313.129 28.03 313.449 28.13C319.839 30.02 322.309 24.69 325.869 21.42C327.247 20.204 328.555 18.912 329.789 17.55C345.349 -0.349997 364.959 -2.72 385.679 5.06C399.579 10.27 412.429 18.31 425.679 25.15C435.499 30.21 445.599 34.49 456.759 35.21C461.759 35.53 466.759 35.09 471.759 34.91C474.758 34.7234 477.764 35.1338 480.603 36.1174C483.443 37.101 486.058 38.6382 488.299 40.64C489.539 41.74 491.019 42.59 492.199 43.75C502.829 54.22 514.999 57.36 529.739 53.83C541.739 50.98 554.129 50.11 566.379 53.02C577.899 55.75 584.829 62.86 590.869 73.45C597.299 84.74 591.939 94.91 592.539 105.45C593.009 113.8 591.779 122.38 590.259 130.66C588.599 139.77 581.919 146.04 576.079 152.86C562.459 168.75 549.079 185.38 550.319 207.86C550.979 219.64 545.319 228.22 541.159 238.04C535.229 252.04 524.949 263.71 521.389 279.09C520.129 284.57 521.099 289.79 519.839 294.8C517.839 302.8 514.769 310.6 511.909 318.4C510.52 322.316 508.773 326.095 506.689 329.69C505.009 332.52 502.509 334.87 500.379 337.43L498.799 336.46ZM522.939 83.74L517.759 74.52C516.059 79.05 520.629 83.52 515.339 86.7C513.999 84.56 512.849 82.36 511.399 80.41C510.56 79.2887 509.489 78.3611 508.259 77.69C506.499 76.69 504.539 76.1 502.679 75.3C500.978 74.4122 499.217 73.6437 497.409 73C491.989 71.53 486.509 70.27 480.729 68.85L477.219 72.75C477.719 62.86 469.109 64.51 465.349 60.18L461.909 62.91L444.789 55.58L440.249 59.36C439.949 57.16 439.749 55.74 439.409 53.22L436.139 60.22L433.649 57L429.649 60.65L421.509 50.36L418.759 55.56L420.199 53.79L409.999 49.1L411.259 47.65C410.629 48.74 409.999 49.84 409.049 51.52C408.159 50.29 406.909 49.28 407.049 48.66C408.289 44.08 406.819 44.66 403.739 46.51C401.869 47.61 399.459 47.8 397.129 48.45C396.689 47.13 396.239 45.76 395.619 43.87C393.489 45.18 391.679 46.28 389.439 47.64L396.439 50.22C397.139 54.47 397.629 57.48 398.189 60.87L402.089 57.95L405.689 65.95C408.569 64.57 409.869 65.61 410.079 68.78C410.359 73.18 412.929 75.64 417.289 75.14C421.186 74.7403 425.015 73.836 428.679 72.45C431.209 71.45 433.259 69.22 435.519 67.54L436.209 68.17L428.369 78.51L429.809 80.03L445.319 70.3L446.569 73.54L451.419 69.54L452.699 70.18C449.769 76.97 445.829 83.31 442.569 90.18L466.569 76.71L467.389 77.54L459.999 87.09L460.999 87.9L475.629 74.9L476.729 76.05L469.019 88.05L470.019 88.74C472.939 85.14 475.849 81.53 479.339 77.21C481.619 83.63 476.599 87.8 476.339 93.57C478.729 90.89 480.539 88.73 482.489 86.7C484.259 84.86 486.179 83.15 488.029 81.38L489.199 82.58L484.339 92.36L485.459 93.12L494.749 87.69L495.909 88.94C492.619 93.7 489.339 98.46 485.269 104.34C493.649 100.66 494.329 90.59 501.569 88.79C503.319 91.18 504.569 92.92 506.209 95.14C506.119 95.82 505.919 97.25 505.669 99.01L514.229 93.01L514.959 93.81C514.249 95.81 513.549 97.72 512.559 100.48L528.889 93.04C531.779 95.39 537.889 95.64 534.629 102.29L545.629 94.76L551.549 100.82C558.309 94.06 560.549 85.13 556.149 78.59C555.319 81.44 554.719 83.78 553.969 86.07C553.219 88.36 552.369 90.45 551.559 92.64L549.819 92.29V77.95L541.899 77.36L537.999 86.99L536.199 86.63C535.979 84.33 535.769 82.04 535.549 79.73L526.889 75.82L522.939 83.74ZM132.349 353.51L133.569 354.31C136.199 350.61 137.629 345.31 144.079 346.11V352.36C149.079 349.68 153.539 347.28 157.999 344.96C163.229 342.24 168.489 339.58 173.769 336.96C174.254 336.835 174.767 336.884 175.219 337.1C181.099 339.31 184.319 338.1 187.379 332.89C188.579 330.89 190.509 329.25 192.109 327.44L193.199 328.26V336C198.449 332.51 198.349 327.8 197.599 322.12C193.859 323.68 190.459 324.94 187.189 326.48C181.639 329.11 176.329 332.28 170.639 334.53C164.299 337.03 157.749 338.94 151.049 334.78C149.879 334.06 146.979 334.64 145.799 335.67C142.404 338.609 139.303 341.871 136.539 345.41C134.699 347.75 133.719 350.78 132.349 353.51ZM381.669 30.07C374.539 38.82 376.059 73.44 383.669 77.25C386.259 62.8 382.399 47.53 389.589 33.39L381.669 30.07ZM354.829 64.36C356.985 63.4093 359.068 62.2996 361.059 61.04C362.837 59.7639 364.372 58.1787 365.589 56.36C366.049 55.66 365.339 53.18 364.799 53.06C362.816 52.5561 360.745 52.5048 358.739 52.91C357.419 53.22 356.379 54.72 354.959 55.91L352.119 50.71C351.259 56.45 350.359 62.54 349.449 68.63L350.799 69.09C350.869 65.53 352.189 64.02 354.829 64.36ZM210.829 341.07C212.711 339.094 214.477 337.01 216.119 334.83C217.899 332.16 216.559 330.09 214.119 328.77C211.439 327.35 209.799 328.59 208.829 331.22C207.439 334.69 207.899 337.76 210.779 341.07H210.829ZM370.529 33.07C370.759 38.07 370.999 43 371.279 48.98C375.089 43.02 373.769 38.06 370.479 33.06L370.529 33.07ZM203.389 347.73L208.709 342.73L202.899 337.65L201.769 338.4C202.249 341.19 202.739 343.98 203.389 347.73ZM351.999 73.11L350.349 73.67L354.739 83.24L356.659 82.34L351.999 73.11ZM364.599 36.56L362.969 36.79C362.719 40.15 361.399 43.79 366.339 45.98L364.599 36.56Z" fill="black"/>
<path d="M124.099 511.94L81.9291 489.94L87.2392 488.8L78.8591 483.75C84.4191 484.83 88.5191 485.75 92.6491 486.36C93.6491 486.51 94.8492 485.8 95.9592 485.48C95.247 484.559 94.397 483.752 93.4391 483.09C92.0319 482.56 90.5744 482.175 89.0891 481.94C92.4991 476.85 93.9391 476.16 100.089 477.31C104.499 478.14 108.829 479.37 113.229 480.25C114.729 480.395 116.239 480.395 117.739 480.25L118.219 478.68L106.139 471.92C115.659 469.85 125.139 466.03 135.269 470.79L135.489 468.79L130.489 465.79L130.959 464.49L148.959 469.71L149.429 468.81L141.999 463.36L142.089 462.58L156.879 466.9V459.77C161.879 458.82 165.879 450.57 170.879 459.45C173.679 457.21 174.879 452.97 179.089 456.09C179.689 456.54 182.169 454.29 183.849 453.44C189.169 450.74 194.169 447.89 197.079 442.15C197.779 440.76 201.179 439.71 202.879 440.15C204.579 440.59 206.469 443.08 206.729 444.89C207.509 450.48 207.129 456.23 207.959 461.8C209.659 473.14 211.959 484.38 213.779 495.7C214.239 498.51 213.859 501.46 214.069 504.33C214.145 505.956 214.503 507.557 215.129 509.06C221.483 522.518 226.013 536.764 228.599 551.42C228.642 552.566 228.903 553.692 229.369 554.74C236.989 566.44 244.699 578.08 252.809 590.39C269.229 570.96 281.249 548.23 302.389 533.06C301.549 534.58 301.039 536.46 299.809 537.56C284.659 551.25 275.329 569.08 264.439 585.77C262.089 589.38 260.159 593.28 257.619 596.77C255.829 599.21 256.179 601.16 257.359 603.57C261.649 612.36 265.999 621.14 269.999 630.12C272.999 636.85 275.279 643.85 278.069 651.22L273.069 653.02L274.209 660.15C293.909 644.15 311.209 627.34 328.019 609.49C327.489 610.64 326.929 611.78 326.409 612.93C319.729 627.87 306.949 637.64 295.769 648.7C287.679 656.7 278.629 663.7 270.629 671.83C261.369 681.19 252.969 691.41 243.849 700.93C238.179 706.8 231.599 711.76 225.999 717.65C197.779 747.28 172.999 779.65 150.739 813.91C144.271 823.634 137.148 832.905 129.419 841.66C129.899 838.66 130.419 835.66 130.929 832.36L124.929 839.72C120.929 837.21 117.379 835.19 114.089 832.84C113.209 832.21 112.749 830.6 112.629 829.4C112.489 827.81 112.879 826.18 111.919 824.23C111.029 826.37 110.129 828.5 109.159 830.82C104.829 831.33 104.439 827.97 103.229 825.06C102.019 822.15 100.119 819.65 98.7392 816.85C98.0592 815.46 97.2092 813.64 97.5692 812.33C98.7992 807.85 100.569 803.52 102.059 799.22L98.9991 800.36L100.189 793.36L99.4291 793.05L94.1292 800.76C93.8082 799.149 93.3874 797.559 92.8691 796C92.2591 794.52 91.3291 793.17 90.6191 791.72C89.8507 790.542 89.3019 789.234 88.9991 787.86C88.7074 784.7 88.7074 781.52 88.9991 778.36C89.7291 771.41 84.9191 770.45 78.3391 769.45L90.5091 744.79L85.6292 750.14L76.4892 752.58C79.0092 748.96 81.5791 745.64 83.6691 742.05C84.3391 740.88 83.7691 738.99 83.7691 737.43C82.0991 737.69 80.0191 737.43 78.8291 738.31C76.4991 740.1 74.6491 742.53 71.8291 744.22C73.0091 742.28 74.0891 740.27 75.4091 738.44C76.8591 736.44 78.5191 734.59 80.0891 732.68L79.1791 731.54L70.8192 737.94L69.5091 737.43C70.3591 734.84 70.7991 732 72.1591 729.71C73.7491 727.03 76.1591 724.81 78.1591 722.44C80.1591 720.07 82.0991 718.03 84.2291 715.67C81.0291 714.82 81.0291 714.82 68.1491 726.99C68.8191 723.89 69.4992 720.79 70.3192 716.99L65.6091 719.29C65.7091 718.7 65.6092 718.29 65.8192 718.12C80.3492 702.66 92.0792 684.12 113.129 675.86C120.896 672.809 128.384 669.092 135.509 664.75C133.299 664.16 131.129 663.22 128.889 663.04C114.139 661.88 99.3792 660.74 84.5992 659.97C82.1192 659.84 79.5491 661.59 77.0191 662.47C74.7386 663.405 72.4005 664.194 70.0191 664.83C61.1491 666.67 52.2291 668.32 42.6091 670.19L47.0191 664.98C46.6491 664.22 46.0191 662.98 45.8891 662.64C48.2891 658.71 50.3191 655.3 52.4391 651.94C53.0853 650.798 53.9322 649.781 54.9391 648.94C59.1091 645.81 63.4991 642.94 67.6191 639.77C81.3791 629.13 96.8291 623.49 114.289 623.42C119.779 623.42 125.289 622.86 130.759 623.09C134.089 623.23 137.379 624.39 142.139 625.4C137.139 628.84 140.139 630.06 141.899 631.15C150.289 636.24 158.809 641.09 167.189 646.15C171.189 648.59 174.559 657.65 173.499 662.68C177.699 662.68 179.159 665.29 180.169 669.06C184.879 686.69 190.089 704.18 194.589 721.86C195.659 726.05 194.689 730.77 194.589 735.24C194.529 737.46 194.309 739.67 194.129 742.24C202.479 737.43 205.529 732.07 203.399 724.43C199.399 710.32 195.399 696.21 190.499 682.43C186.849 672.11 183.429 662.15 185.909 650.92C187.169 645.22 183.999 640.35 179.589 637.05C172.119 631.45 171.329 624.47 174.679 616.69C178.099 608.76 176.539 602.9 170.309 596.69C156.769 583.28 143.229 570.1 126.009 561.35C115.139 555.82 104.559 549.71 93.5891 544.4C87.3491 541.4 80.3391 539.96 74.1191 536.9C68.4649 534.12 63.1916 530.625 58.4291 526.5C56.6391 524.93 56.3191 520.87 56.5191 518.02C56.7391 514.94 59.9091 515.45 62.3291 514.81C66.1685 513.887 69.7944 512.233 73.0091 509.94C79.6791 504.85 86.1292 502.72 94.7092 505.65C104.039 508.83 113.969 510.28 123.629 512.48L124.099 511.94Z" fill="black"/>
<path d="M289.999 288.85C290.099 290.455 290.099 292.065 289.999 293.67C286.609 321.08 296.279 344.33 311.729 366.29C323.589 383.13 339.669 394.29 357.569 402.87C369.869 408.79 383.169 412.68 396.109 417.23C399.075 418.346 402.249 418.799 405.409 418.56C407.669 418.31 410.649 416.72 411.719 414.83C419.339 401.27 426.559 387.49 434.179 373.28C431.679 372.97 428.329 372.18 424.989 372.28C416.169 372.44 408.919 369.19 402.699 363.14C392.509 353.23 385.419 341.29 380.259 328.92L375.259 326.99C375.939 325.4 376.349 323.59 377.359 322.24C380.249 318.38 383.839 317.31 388.739 318.8C391.739 319.69 395.229 319.14 398.409 318.67C408.229 317.23 417.589 318.19 426.649 322.49C429.432 323.83 432.433 324.656 435.509 324.93C443.509 325.53 450.959 326.93 456.949 332.93C457.839 333.82 459.949 333.98 461.409 333.69C464.124 332.995 466.795 332.14 469.409 331.13L470.409 332.13C469.159 333.38 468.079 335.44 466.619 335.76C456.349 337.99 454.879 347.65 450.509 354.69C447.389 359.69 446.069 366 442.509 370.59C423.039 395.59 412.879 424.59 405.029 454.7C399.969 474.14 395.519 493.77 389.559 512.93C384.189 530.2 376.729 546.68 365.439 561.2C356.269 573 347.729 585.29 338.859 597.33C337.319 599.42 335.529 601.33 333.859 603.33L332.579 602.54C334.029 599.89 335.269 597.1 336.969 594.62C342.619 586.39 348.199 578.11 354.209 570.15C370.009 549.23 379.429 525.37 386.909 500.58C389.576 491.84 392.032 483.04 394.279 474.18C395.749 468.47 396.759 462.63 397.959 456.84C398.11 456.362 398.11 455.848 397.959 455.37C395.249 449.98 390.069 452.52 385.959 451.85C383.609 451.47 381.519 451.93 380.819 455.59C379.709 461.4 377.489 467.02 375.389 472.59C374.849 474 372.969 474.9 371.709 476.04L370.599 475.4C371.139 472.03 371.709 468.67 372.219 465.29C373.069 459.75 371.589 458.08 366.089 456.78C363.039 456.033 360.146 454.746 357.549 452.98C334.999 437.6 319.059 416.78 308.999 391.72C302.569 375.57 298.209 358.58 291.879 342.36C286.879 329.65 285.489 316.61 285.269 303.31C285.189 298.31 286.819 293.36 287.669 288.38L289.999 288.85ZM392.099 327.36C396.339 337.94 401.739 347.57 414.839 349.99C421.839 351.28 428.739 353.24 435.709 354.78C436.709 354.99 438.369 354.91 438.799 354.31C442.139 349.66 445.249 344.84 448.709 339.65L392.099 327.36ZM398.999 447.43C400.559 442.92 405.569 438.85 400.709 434.31C398.709 432.4 390.559 435.85 389.889 439.17C388.489 446.3 396.729 443.54 398.999 447.43Z" fill="black"/>
<path d="M704.309 301.87C704.779 308.96 709.309 312.97 714.899 316.03C719.029 318.3 723.429 320.03 727.519 322.36C728.579 322.96 729.169 324.77 729.519 326.15C730.579 330.15 731.149 334.36 732.519 338.25C732.849 339.17 735.729 339.68 737.369 339.54C744.484 338.778 751.671 340.018 758.119 343.12C764.969 346.42 772.659 347.98 780.459 346.2C781.959 345.86 783.299 344.81 785.459 342.54L795.459 355.19C790.899 359.85 786.649 364.66 781.919 368.95C773.049 376.95 763.919 384.8 754.849 392.59C751.149 395.75 751.499 398.79 755.319 400.92C760.999 404.08 762.319 408.7 761.849 414.69C761.694 418.346 761.938 422.008 762.579 425.61C763.579 432.22 767.579 436.61 773.329 439.74C783.769 445.36 794.969 445.93 806.379 444.62C815.619 443.57 825.039 442.95 833.999 440.62C846.589 437.41 859.819 436.83 871.709 430.36C879.659 426.03 888.839 424.02 897.159 420.28C901.919 418.14 906.239 414.86 910.449 411.68C916.219 407.32 921.689 402.57 927.949 398.53C927.595 399.35 927.163 400.133 926.659 400.87C917.249 412.2 906.769 422.22 894.079 430.03C883.239 436.7 872.989 444.36 862.669 451.83C861.439 452.72 860.929 455.19 860.819 456.97C860.199 467.75 860.419 478.63 859.129 489.33C857.839 500.03 855.359 510.85 852.879 521.48C852.199 524.37 849.609 526.8 847.379 529.33C851.169 501.65 855.809 474.09 849.769 445.81C840.239 447.46 831.459 449.14 822.629 450.48C809.729 452.43 796.629 453.8 784.029 449.77C776.852 447.602 770.077 444.278 763.969 439.93C756.259 434.16 754.359 425.36 757.029 416.08C758.099 412.37 756.759 410 754.399 407.72C751.769 405.18 748.949 402.82 746.399 400.22C743.849 397.62 743.259 394.59 745.329 391.22C748.119 386.63 750.589 381.84 753.329 377.22C754.869 374.66 754.329 372.81 752.629 370.48C749.769 366.54 746.729 362.48 744.989 358.03C742.309 351.17 739.459 345.21 731.089 344.18C729.889 344.03 728.419 342.23 727.939 340.88C726.939 338.25 725.849 335.31 726.179 332.67C726.929 326.62 722.669 326.18 718.849 324.06C713.082 320.988 707.821 317.049 703.249 312.38C701.319 310.38 702.329 305.55 701.999 302L704.309 301.87ZM747.659 350.43L747.199 352.36C751.069 359.56 754.939 366.75 758.949 374.19C768.599 366.39 781.399 365.53 789.619 354.08L747.659 350.43Z" fill="black"/>
<path d="M68.9991 828.65C58.889 811.639 51.1507 793.326 45.9991 774.22C40.6658 754.52 34.9991 734.913 28.9991 715.4C27.2116 709.853 24.6856 704.573 21.4891 699.7C14.7491 689.16 13.7091 677.7 14.4391 665.7C15.0091 656.24 16.4391 646.7 15.7591 637.34C15.2591 630.65 13.3091 623.13 9.45914 617.81C1.58914 606.91 -0.0608502 594.99 0.19915 582.41C0.37915 573.13 0.199135 563.58 2.30914 554.67C5.68914 540.58 10.8891 526.92 15.3091 513.08L17.3691 513.35C17.5329 515.094 17.5161 516.85 17.3191 518.59C12.9191 538.68 5.59915 558.38 7.22915 579.33C8.09915 590.5 10.6891 601.58 13.0591 612.58C13.8897 616.166 15.6604 619.466 18.1891 622.14C24.5291 628.71 25.9091 636.86 25.8791 645.14C25.8791 655.87 23.5391 666.7 24.4291 677.3C25.2898 686.368 27.8083 695.201 31.8591 703.36C38.5991 717.04 43.9291 730.91 46.0391 746.05C46.7191 750.92 48.5491 755.63 49.8791 760.41C50.1491 761.41 50.6991 762.25 50.8791 763.21C53.0791 773.93 54.6891 784.82 57.5691 795.36C60.3991 805.74 64.5091 815.76 68.0591 825.95C68.3891 826.84 68.6891 827.75 68.9991 828.65Z" fill="black"/>
<path d="M100.859 585.46C96.5791 584.56 92.9591 583.9 89.4091 582.96C88.3491 582.68 86.6691 581.48 86.7491 580.9C86.8453 580.218 87.0814 579.562 87.4428 578.976C87.8042 578.389 88.283 577.883 88.8492 577.49C90.4422 576.569 92.2727 576.141 94.1091 576.26C102.789 577.32 111.849 577.46 119.989 580.26C130.588 584.014 140.783 588.825 150.419 594.62C156.419 598.14 160.229 604.47 161.229 611.84C161.879 616.61 159.839 618.84 155.359 617.37C148.45 615.08 141.673 612.409 135.059 609.37C126.749 605.58 118.749 601.14 109.239 600.97C103.849 600.87 98.4691 600.29 93.0791 600.1C91.3891 600.04 88.4791 600.05 88.1791 600.82C86.3691 605.51 83.0891 603.82 79.8691 603.41C70.1491 602.16 60.4091 601.06 50.6791 599.9C48.7891 599.67 46.8891 599.41 44.0091 599.05C48.6891 593.35 54.4891 598.05 58.7591 594.32L49.1891 593.73L48.9691 592.73C51.7491 592.11 54.5291 591.44 57.3291 590.88C60.9591 590.16 64.5792 589.39 68.2392 588.88C71.3492 588.46 74.4991 588.35 77.6391 588.2C80.2391 588.08 82.8791 588.36 85.4391 588.02C90.2691 587.43 95.0491 586.46 100.859 585.46Z" fill="black"/>
<path d="M977.999 609.36L975.429 606.19L961.639 618.07L960.749 617.57C961.369 616.02 961.689 614.23 962.679 612.96C967.346 606.96 972.149 601.027 977.089 595.16C977.729 594.4 979.259 594.39 980.369 594.03C980.489 595.19 980.609 596.36 980.829 598.43C982.469 597.6 984.499 597.07 985.829 595.82C1004.52 578.82 1026.71 570.2 1051.65 567.82C1058.07 567.21 1064.37 565.38 1070.77 564.48C1080.23 563.14 1092.96 565.9 1100.26 571.26C1077.33 571.57 1057.15 578.79 1037.04 585.36C1016.93 591.93 998.059 601.08 977.999 609.36Z" fill="black"/>
<path d="M690.109 745.36L697.789 744.7C697.629 743.15 697.489 741.85 697.319 740.3C698.319 740.6 699.169 741.18 699.809 741C711.009 737.86 720.139 747.8 731.139 745.94C731.819 745.82 732.699 746.4 733.389 746.81C750.249 756.81 767.119 766.81 783.899 776.91C786.999 778.78 789.899 781.19 788.629 786.28L777.109 777.56L775.909 778.49C776.658 779.742 777.239 781.087 777.639 782.49C777.726 784.056 777.628 785.627 777.349 787.17C775.969 786.98 774.429 787.17 773.249 786.55C770.689 785.29 768.419 783.4 765.729 786.47C765.319 786.95 763.199 786.47 762.309 785.87C760.309 784.44 758.629 782.51 756.659 781C755.109 779.82 753.039 777.88 751.659 778.19C746.509 779.36 743.899 775.81 740.409 773.49C737.899 771.82 734.779 770.98 731.829 770.09C726.495 768.625 721.944 765.133 719.149 760.36C718.149 758.74 716.879 756.89 715.269 756.16C708.429 753.08 701.409 750.4 694.469 747.54C693.439 747.14 692.489 746.56 690.109 745.36Z" fill="black"/>
<path d="M978.139 646.48L985.199 640.72C985.039 640.23 984.889 639.72 984.739 639.25C978.949 641.05 973.099 642.66 967.409 644.73C963.679 646.08 960.729 645.73 957.199 641.73C977.299 630.55 998.899 626.11 1020.45 621.3C1020.98 622.61 1021.39 623.6 1021.84 624.72C1024.84 624.14 1027.67 623.81 1030.37 623.04C1040.37 620.16 1050.24 623.75 1060.2 623.25C1062.49 623.14 1064.78 626.05 1067.3 626.86C1070.86 628 1074.64 628.48 1078.3 629.51C1055.53 628.606 1032.83 632.596 1011.73 641.21C1008.83 642.37 1005.73 643.66 1002.89 640.26C1002.19 639.43 999.069 640.09 997.369 640.8C993.849 642.26 990.609 644.38 987.129 645.92C984.617 646.884 982.053 647.709 979.449 648.39L978.139 646.48Z" fill="black"/>
<path d="M1042.59 675.48C1035.09 674.57 1028.35 672.84 1021.7 673.17C1012.7 673.62 1003.7 675.43 994.829 677.06C985.569 678.76 976.399 681 967.169 682.86C964.409 683.41 961.499 683.25 958.759 683.86C954.075 684.876 949.181 684.166 944.979 681.86C943.619 681.17 941.479 679.73 941.599 678.86C941.766 678.027 942.124 677.244 942.645 676.573C943.165 675.901 943.834 675.36 944.599 674.99C953.259 672.19 961.899 668.27 970.789 667.52C985.872 666.33 1001.02 666.23 1016.12 667.22C1024.12 667.69 1031.89 671.02 1039.74 673.22C1040.63 673.43 1041.33 674.43 1042.59 675.48Z" fill="black"/>
<path d="M978.689 558.17C971.079 563.28 964.689 568.31 957.689 572.17C945.002 579.181 933.595 588.29 923.949 599.11C917.179 606.53 909.139 612.8 902.419 620.26C896.879 626.39 892.529 633.58 887.469 640.17C885.259 643.04 882.469 645.49 880.149 648.25C871.949 657.84 863.829 667.49 854.729 678.25C850.119 673.81 844.809 669.94 841.149 664.87C835.919 657.64 831.699 649.64 827.529 641.72C826.529 639.9 827.529 637.05 828.599 634.49C837.469 647.02 841.199 662.79 855.519 670.94C864.999 659.22 874.129 647.36 883.999 636.11C896.389 621.97 908.999 608.04 922.169 594.58C936.579 579.79 952.899 567.44 972.259 559.58C973.499 559.08 974.729 558.58 975.989 558.15C976.888 558.071 977.792 558.078 978.689 558.17Z" fill="black"/>
<path d="M233.239 396.16C227.239 420.01 235.119 441.41 245.669 461.79C249.489 469.16 256.549 475.14 262.969 480.79C276.539 492.79 292.499 501.14 308.749 508.91C310.972 509.798 312.972 511.164 314.609 512.91C310.239 511.83 305.829 510.91 301.549 509.56C300.199 509.14 299.199 507.61 298.039 506.56C297.369 505.98 296.659 504.93 296.039 504.95C287.109 505.33 280.089 500.51 273.199 496.06C249.799 480.96 233.859 459.99 225.749 433.3C222.649 423.1 223.519 412.86 227.459 402.98C228.459 400.34 230.349 397.98 231.829 395.53L233.239 396.16Z" fill="black"/>
<path d="M1144.24 669.36L1145.85 673.73L1150.85 660.63L1152.56 660.39C1153.28 663.64 1155.31 667.28 1154.49 670.08C1151.8 678.903 1148.59 687.558 1144.88 696C1142.88 700.6 1139.78 704.73 1136.53 710.16V702.81C1131.76 710.49 1129.83 719.19 1120.08 719.45C1120.08 719.7 1119.86 718.93 1120.08 718.37C1123.6 710.37 1125.74 701.12 1131.08 694.58C1137.47 686.87 1140.18 678.17 1144.24 669.36Z" fill="black"/>
<path d="M483.139 225.09C474.289 232.7 466.619 241.33 464.909 252.94C463.289 263.94 463.199 275.23 462.419 286.59C459.419 286.13 457.829 283.12 456.859 279.52C450.689 256.73 461.589 235.27 479.929 224.71C480.496 224.43 481.081 224.186 481.679 223.98L483.139 225.09Z" fill="black"/>
<path d="M473.999 430.25C476.169 419.05 478.579 407.88 480.429 396.63C482.639 383.2 487.649 370.81 493.199 358.54C494.419 355.86 496.559 353 493.379 349.9C492.899 349.43 494.219 347.11 494.699 345.65C495.819 346.13 497.269 346.31 497.979 347.14C500.139 349.61 501.189 352.32 499.479 355.72C497.399 359.87 495.879 364.29 493.889 368.49C489.456 377.585 486.332 387.26 484.609 397.23C482.729 408.54 478.929 419.52 475.969 430.65L473.999 430.25Z" fill="black"/>
<path d="M455.899 418.13C456.899 414.37 457.999 410.63 458.969 406.86C460.309 401.61 461.399 396.29 462.919 391.1C463.986 387.618 465.324 384.224 466.919 380.95C469.549 375.41 472.689 370.09 475.139 364.47C477.869 358.2 480.139 351.71 482.429 345.26C482.759 344.35 482.079 343.11 482.019 342.02C481.949 340.72 481.599 339.09 482.219 338.21C482.739 337.48 484.949 337.04 485.619 337.54C486.789 338.41 488.239 340.28 487.999 341.41C487.113 346.255 485.773 351.006 483.999 355.6C477.159 372.04 469.999 388.34 462.999 404.73C461.059 409.28 459.449 413.96 457.689 418.58L455.899 418.13Z" fill="black"/>
<path d="M935.089 274.81C931.199 270.08 935.029 265.36 934.089 260.64C925.319 255.3 923.239 245.96 928.929 237.23C930.109 235.43 931.019 233.46 932.179 231.64C935.549 226.35 939.969 225.5 946.179 229.34C944.749 230.34 943.229 231.02 942.309 232.17C938.939 236.35 935.359 240.46 932.649 245.06C930.869 248.06 930.889 251.32 935.259 253.57C939.629 255.82 940.169 260.85 937.629 265.12C936.839 266.7 936.274 268.383 935.949 270.12C935.539 271.69 935.359 273.26 935.089 274.81Z" fill="black"/>
<path d="M1012.87 819.96L1010.26 813.66C1009.77 814.82 1009.36 815.8 1008.95 816.79H1007.86L1003.57 776.93L1005.46 776.42C1006.12 777.524 1006.7 778.669 1007.21 779.85C1008.01 782.04 1007.51 785.14 1011.28 785.03C1011.61 785.03 1012.11 785.59 1012.28 786.03C1016.22 796.67 1018.34 807.36 1012.87 819.96Z" fill="black"/>
<path d="M439.669 409C443.339 382.72 458.079 361.69 471.899 340.22L473.629 341.05C462.322 363.683 451.002 386.333 439.669 409Z" fill="black"/>
<path d="M844.659 821.82C847.089 827.66 849.469 833.52 851.969 839.34C854.319 844.81 857.149 850.1 859.099 855.7C860.695 860.66 861.892 865.739 862.679 870.89C863.309 874.47 864.009 877.47 867.679 879.38C871.349 881.29 868.789 883.72 867.619 886.01C860.619 883.88 859.679 878.11 859.189 872.48C858.649 866.24 857.919 860.25 853.579 855.34C853.353 855.092 853.182 854.799 853.079 854.48C851.399 849.11 849.779 843.73 848.079 838.37C846.379 833.01 844.619 827.84 842.879 822.58L844.659 821.82Z" fill="black"/>
<path d="M415.129 168.85C412.709 166.91 410.719 165.25 408.659 163.68C403.179 159.5 399.429 159.68 394.969 165.01C392.519 167.91 390.729 171.37 388.489 174.46C387.179 176.27 385.559 177.86 383.539 180.17C383.3 179.268 383.129 178.348 383.029 177.42C383.129 173.31 393.599 157.21 397.259 155.47C399.868 154.35 402.737 153.98 405.544 154.402C408.352 154.825 410.985 156.022 413.149 157.86C416.399 160.79 416.629 164.29 415.129 168.85Z" fill="black"/>
<path d="M1099.19 640.04C1077.99 635.04 1057.19 642.87 1035.72 642.04C1052.61 634.36 1083.28 630.36 1099.19 640.04Z" fill="black"/>
<path d="M819.129 831.81C825.539 841.73 832.479 851.67 838.489 862.15C841.189 866.86 841.989 872.66 843.749 877.92C844.659 880.63 845.909 883.22 846.749 885.92C846.984 887.084 847.071 888.274 847.009 889.46C845.719 889.04 843.719 888.99 843.279 888.14C841.63 885.26 840.446 882.139 839.769 878.89C838.399 870.07 834.239 862.63 829.449 855.37C824.659 848.11 819.999 840.57 819.129 831.81Z" fill="black"/>
<path d="M1051.37 771.24L1078.07 732.51L1080 733.36C1079.56 735.46 1079.75 738.02 1078.58 739.57C1070.58 750.21 1062.39 760.63 1054.22 771.1C1053.75 771.55 1053.23 771.934 1052.66 772.24L1051.37 771.24Z" fill="black"/>
<path d="M529.549 218.71C519.069 211.89 509.669 220 498.699 221.25C499.879 219.14 500.389 217.61 501.399 216.53C505.139 212.53 520.159 209.3 525.119 211.53C527.999 212.78 531.119 214.14 529.549 218.71Z" fill="black"/>
<path d="M802.419 851.07L819.199 885.29L817.549 886.47C814.719 882.9 811.379 879.61 809.169 875.68C806.177 870.162 803.59 864.433 801.429 858.54C800.589 856.35 801.079 853.66 800.959 851.2L802.419 851.07Z" fill="black"/>
<path d="M605.829 809.75C610.529 799.69 624.199 792.13 628.949 796.9C622.139 802.46 617.209 811.03 605.829 809.75Z" fill="black"/>
<path d="M1114.68 703.52C1112.17 719.03 1100.33 729.27 1093.16 742.15L1091.68 741.32L1112.81 702.55L1114.68 703.52Z" fill="black"/>
<path d="M1077.16 752.08C1083.57 739.84 1089.99 727.6 1096.4 715.36L1098.68 716.55C1094.68 730.03 1086.23 741.23 1078.87 752.98L1077.16 752.08Z" fill="black"/>
<path d="M1124.21 696.57C1124.28 710.5 1114.21 719.23 1107.45 729.69C1110.87 717.54 1117 706.8 1124.21 696.57Z" fill="black"/>
<path d="M949.229 322.46C945.939 328.8 940.919 332.18 935.609 331.46C930.299 330.74 927.479 326.58 925.809 321.92C924.349 317.92 924.699 313.92 928.689 310.43C929.879 316.24 927.839 322.3 933.449 326.33C940.149 331.11 943.469 323.59 949.229 322.46Z" fill="black"/>
<path d="M775.999 212.04L764.999 198.51C761.789 204.3 759.239 209.04 756.519 213.67C756.109 214.36 754.859 214.55 753.999 214.98L752.999 213.82C756.109 208.82 758.909 203.61 762.489 199C763.799 197.3 767.569 195.72 769.149 196.44C771.559 197.54 773.389 200.44 774.829 203.01C776.159 205.35 776.659 208.16 777.529 210.77L775.999 212.04Z" fill="black"/>
<path d="M272.549 204.06L274.719 199.36C275.949 200.9 277.669 202.27 278.309 204.03C279.633 207.758 280.666 211.583 281.399 215.47C281.649 216.75 280.789 218.24 280.399 219.64C278.819 218.83 276.269 218.37 275.819 217.14C274.389 213.13 273.689 208.83 272.549 204.06Z" fill="black"/>
<path d="M504.629 245.07C503.829 249.64 503.429 253.72 502.299 257.58C501.859 259.09 499.789 260.13 498.459 261.38C497.229 259.95 495.459 258.71 494.879 257.05C493.479 253.05 498.819 245.93 504.629 245.07Z" fill="black"/>
<path d="M400.729 232.27L403.639 214.75C408.839 217.36 410.249 220.75 409.309 225.38C408.519 229.28 406.519 231.61 400.729 232.27Z" fill="black"/>
<path d="M42.9991 677.29C46.5591 672.29 64.8691 667.18 71.2991 670.22L42.9991 677.29Z" fill="black"/>
<path d="M875.859 535.18C882.309 528.88 890.149 525.79 898.949 524.89L899.659 526.51L876.749 537.1C876.449 536.46 876.149 535.82 875.859 535.18Z" fill="black"/>
<path d="M951.359 319.93C950.359 309.17 948.579 307.22 936.809 303.74C940.309 300.68 947.679 301.74 950.939 305.74C953.999 309.45 954.449 317 951.359 319.93Z" fill="black"/>
<path d="M759.099 277.3C759.099 270.93 754.719 264.09 762.389 259.1C765.719 267.11 764.729 272.76 759.099 277.3Z" fill="black"/>
<path d="M70.3091 605.57H44.0692C52.8492 601.93 61.5891 602.76 70.3091 605.57Z" fill="black"/>
<path d="M312.359 531.93C315.139 535.29 319.799 537.1 317.359 541.68C316.769 542.78 312.049 543.2 310.789 542.12C306.809 538.74 310.589 535.72 312.359 531.93Z" fill="black"/>
<path d="M466.579 299.75L454.499 307.87C456.189 301.36 460.119 298.63 466.579 299.75Z" fill="black"/>
<path d="M787.479 777.11L774.759 766.92L775.759 765.58L788.999 775.13L787.479 777.11Z" fill="black"/>
<path d="M55.3691 612.16L38.3691 610.77C44.1491 607.02 49.7191 610.64 55.3691 612.16Z" fill="black"/>
<path d="M440.079 298.49C438.079 302.41 435.309 303.43 430.959 302.3C433.169 298.3 435.579 296.45 440.079 298.49Z" fill="black"/>
<path d="M832.199 490.99C810.729 506.06 797.509 526.33 793.479 551.99C789.589 576.74 791.119 600.91 803.179 624.15C801.729 624.86 800.349 626.07 798.889 626.15C791.479 626.68 786.289 631.79 780.049 634.71C773.585 637.56 766.929 639.953 760.129 641.87C759.129 642.16 756.479 640.18 756.249 638.95C752.159 616.63 750.719 594.21 758.059 572.31C766.509 547.1 777.319 523.05 796.439 503.75C797.174 502.872 798.07 502.142 799.079 501.6C807.832 498.06 816.616 494.587 825.429 491.18C827.285 490.569 829.175 490.065 831.089 489.67L832.199 490.99Z" fill="white"/>
<path d="M592.229 546.84L588.839 549.16L580.909 540.26L579.669 541.6V540.49C577.969 540.49 576.099 540.94 574.619 540.37C573.039 539.762 571.746 538.58 570.999 537.06C569.429 533.13 567.129 532.53 563.669 534.84L561.359 530.21L558.259 532.05C557.489 530.26 556.779 528.64 555.739 526.24L545.339 533.48C544.779 530.73 544.089 527.42 543.409 524.11H541.619L539.489 535.76C538.959 531.85 538.489 528.28 537.929 524.29L533.499 525.79L526.559 511.44L523.559 512.32C522.789 510.62 522.109 509.12 521.439 507.62L520.939 508.62L501.309 499.95C501.309 506.26 495.309 505.54 490.189 507.21V483.7C504.389 486.25 518.189 488.75 531.949 491.2C536.329 491.98 538.169 494.2 537.329 498.83C536.542 502.911 536.117 507.054 536.059 511.21C536.059 516.53 538.559 520.76 544.009 521.89C550.649 523.27 557.419 524.09 564.169 524.89C571.169 525.65 576.899 528.25 581.279 533.89C584.689 538.17 588.369 542.26 592.229 546.84Z" fill="white"/>
<path d="M366.549 699.02C362.829 706.55 359.289 714.17 355.349 721.57C351.929 728.01 347.829 734.09 344.459 740.57C341.869 745.52 338.829 749.25 331.889 748.57C334.779 744.1 337.659 739.83 340.339 735.45C345.679 726.71 350.759 717.81 356.259 709.18C358.799 705.18 362.069 701.66 365.009 697.92L366.549 699.02Z" fill="white"/>
<path d="M669.729 950.3C660.999 946.36 655.999 938.61 655.809 929.04H661.529C660.209 937.36 664.209 943.66 669.729 950.3Z" fill="white"/>
<path d="M601.399 562.57L593.549 559.48C593.069 557.04 592.289 553.11 591.549 549.18L593.409 548.37L601.399 562.57Z" fill="white"/>
<path d="M603.539 562.73C602.569 570.41 604.219 572.79 613.219 576.11L603.539 562.73Z" fill="white"/>
<path d="M626.259 589.76C617.259 591.76 620.449 583.76 616.679 582.19L618.229 580.79L626.259 589.76Z" fill="white"/>
<path d="M722.149 779.87L729.999 786.46C730.999 779.74 725.849 780.76 722.149 779.87Z" fill="white"/>
<path d="M323.219 766.68L315.369 780.03L314.249 779.41L321.779 765.93L323.219 766.68Z" fill="white"/>
<path d="M740.689 77.07C741.239 80.79 743.689 82.6 747.499 81.49C750.329 80.66 752.959 79.86 754.499 83.6C754.759 84.22 756.719 84.14 757.889 84.35C759.98 84.5698 761.996 85.253 763.789 86.35L782.289 83.96C782.729 88.11 784.749 89.09 788.689 87.05C792.959 84.85 797.499 83.16 801.389 81.48C799.189 88.1 797.209 94.29 795.049 100.43C794.333 102.029 793.494 103.571 792.539 105.04C790.739 108.36 788.969 111.69 787.159 115.04C786.846 114.353 786.492 113.685 786.099 113.04C784.929 111.24 783.699 109.48 782.489 107.7L778.879 113.55C778.349 111.55 777.779 109.47 777.069 106.82L772.849 110.36V102.66L771.549 102.14L766.419 112.77C765.639 108.66 765.059 105.6 764.489 102.54L763.629 102.02C761.979 106.43 760.339 110.84 758.429 115.92C753.999 110.69 758.749 105.12 756.169 99.58L751.169 107.87L749.789 107.23L750.479 95.23C744.149 100.95 746.939 108.42 743.229 114.51V108.86C740.519 107.72 737.659 107.34 736.309 105.71C734.959 104.08 735.189 101.23 733.689 98.5L730.119 109.78L728.759 109.53C729.359 103.98 729.949 98.44 730.649 91.96C723.189 95.87 724.289 102.96 722.819 108.82L721.249 108.66C721.599 103.57 722.019 98.49 722.249 93.39C722.299 92.27 721.969 90.49 721.249 90.15C720.529 89.81 718.729 90.22 717.839 90.88C715.863 92.4498 713.967 94.1186 712.159 95.88L710.589 94.83C711.299 92.96 712.019 91.09 712.769 89.15C709.299 86.93 706.149 87.65 705.109 91.94C704.219 95.59 704.339 99.49 704.039 103.27C703.988 105.38 703.606 107.468 702.909 109.46C701.459 100.79 700.479 92.1 703.709 83.63C704.809 80.75 710.399 80.63 712.479 82.97C712.866 83.275 713.324 83.4771 713.81 83.5575C714.296 83.638 714.795 83.5941 715.259 83.43C722.539 77.5 730.599 74.43 740.689 77.07Z" fill="white"/>
<path d="M1105.23 442.46C1101.11 448.56 1101.01 448.58 1098.23 443.57C1094.64 446.74 1091.31 450.46 1087.23 452.94C1085.23 454.16 1081.79 452.79 1079.08 453.17C1076.37 453.55 1073.32 454.02 1071.2 455.54C1062.46 461.79 1054.02 468.45 1044.75 475.54C1037.63 472.43 1045.81 466.44 1043.75 461.6L1039.49 463.65L1048.76 444.02L1047.46 443.02L1039.06 448.95C1037.41 444.47 1039.92 441.64 1043.06 439.04C1046.01 436.57 1048.59 433.98 1046.16 429.69L1053.24 425.04C1052.75 433.42 1052.31 440.97 1051.88 448.47C1057.17 451.14 1061.53 451.1 1065.88 447.28C1070.54 443.16 1075.56 439.45 1079.74 436.11L1090.04 436.96C1097.38 437.59 1102.91 433.1 1109.04 430.34C1112.09 429.148 1115.2 428.114 1118.36 427.24C1122.44 435.83 1117.88 444.24 1118.89 452.39C1117.25 449.39 1115.62 446.39 1114.2 443.83L1105.23 442.46Z" fill="white"/>
<path d="M1056.85 423.42C1050.48 417.7 1048.51 412.56 1051.09 405.91C1052.58 402.04 1050.09 400.48 1045.54 400.71C1047.05 396.21 1048.37 392.31 1049.69 388.41L1048.45 388.05L1054.26 383.24L1053.66 382.09C1051.95 382.338 1050.28 382.757 1048.66 383.34C1042.12 386.43 1035.77 389.34 1028.4 390.83C1018.79 392.83 1011.6 399.95 1007.18 409.13C1005.68 412.26 1004.34 415.47 1002.86 418.8C999.579 410 1000.69 407.32 1007.69 401.34C1011.8 397.83 1014.8 393.05 1018.69 389.26C1021.14 386.684 1024.1 384.641 1027.38 383.26C1037.2 379.72 1047.06 375.13 1057.24 374.04C1068.69 372.81 1072.53 365.84 1075.93 357.12C1077.93 351.88 1079.93 346.61 1082.37 340.29C1084.16 342.97 1085.37 344.86 1086.98 347.2C1080.51 349.5 1077.78 353.2 1079.98 359.59C1080.27 360.43 1079.44 361.69 1079.05 362.73C1077.17 367.78 1074.67 372.73 1073.62 377.92C1073.14 380.29 1075.37 383.3 1076.62 385.92C1078.33 389.54 1080.25 393.06 1082.09 396.63L1080.37 397.82L1069.93 386.82C1065.15 389.09 1060.8 390.5 1057.32 393.08C1055.75 394.25 1055.24 397.77 1055.39 400.14C1055.6 403.57 1057.31 406.9 1057.54 410.33C1057.78 414.36 1057.15 418.36 1056.85 423.42Z" fill="white"/>
<path d="M825.229 125.36C826.679 121.36 827.579 117.67 829.229 114.42C830.879 111.17 833.429 108.42 835.509 105.42C839.139 100.15 837.099 95.59 830.629 94.71C826.469 94.14 822.499 96.21 822.099 99.86C821.299 107.18 814.599 110.8 813.379 117.59C809.289 115.1 809.289 115.1 813.169 105.28C808.879 106.2 808.629 106.49 803.439 115.28C803.619 112.14 803.789 108.99 803.979 105.42L801.579 106.75C797.399 103.75 798.399 100.46 801.449 97.39C805.549 93.27 809.559 89.58 816.369 89.94C820.199 90.14 824.139 87.41 828.099 86.26C829.527 86.0374 830.984 86.0746 832.399 86.37C833.189 86.46 834.019 87.14 834.729 87C841.109 85.75 847.469 84.37 853.929 83L852.729 88.9L857.459 88.23L852.659 94.07L853.659 95.07C864.659 90.5 873.379 82.93 881.229 73.98C882.899 79.16 882.799 79.04 878.759 81.98C874.879 84.84 871.479 88.43 867.389 90.92C862.799 93.72 857.559 95.42 852.829 98.02C847.929 100.698 843.206 103.687 838.689 106.97C837.549 107.8 837.379 110.22 837.139 111.97C836.739 114.74 836.889 117.61 836.319 120.33C836.109 121.33 834.679 122.49 833.559 122.94C831.289 123.88 828.829 124.36 825.229 125.36Z" fill="white"/>
<path d="M1071.77 203.02C1073.07 206.56 1074.27 210.12 1075.66 213.6C1078.21 220.03 1075.78 223.32 1068.97 222.96C1067.83 222.9 1065.63 224.41 1065.59 225.27C1065.44 229.17 1063.96 232.27 1061.84 235.5C1060.4 237.7 1060.34 240.8 1059.57 243.86C1056.02 244.1 1054.7 245.53 1055.7 249.86C1058.01 259.94 1056.9 271.04 1053.86 278.79C1050.12 271.33 1050.08 270.85 1051.23 262.79C1051.48 260.8 1051.58 258.795 1051.53 256.79C1051.29 237.35 1059.75 220.93 1069.53 204.95C1069.93 204.412 1070.4 203.934 1070.93 203.53C1071.19 203.334 1071.47 203.163 1071.77 203.02Z" fill="white"/>
<path d="M522.939 83.74L526.869 75.82L535.529 79.73C535.749 82.04 535.959 84.33 536.179 86.63L537.979 86.99L541.899 77.36L549.789 77.99V92.27L551.529 92.62C552.339 90.43 553.209 88.26 553.939 86.05C554.669 83.84 555.289 81.42 556.119 78.57C560.519 85.11 558.279 94.04 551.519 100.8L545.599 94.74L534.599 102.27C537.889 95.62 531.749 95.37 528.859 93.02L512.529 100.46C513.529 97.7 514.219 95.74 514.929 93.79L514.199 92.99L505.639 98.99C505.889 97.23 506.089 95.8 506.179 95.12C504.569 92.9 503.289 91.12 501.539 88.77C494.299 90.57 493.619 100.64 485.239 104.32C489.309 98.44 492.589 93.68 495.879 88.92L494.719 87.67L485.429 93.1L484.339 92.36L489.149 82.64L487.999 81.41C486.149 83.18 484.229 84.89 482.459 86.73C480.509 88.73 478.699 90.92 476.309 93.6C476.609 87.83 481.629 83.66 479.309 77.24C475.819 81.56 472.909 85.17 469.989 88.77L468.989 88.08L476.699 76.08L475.599 74.93L460.999 87.9L459.999 87.09L467.389 77.52L466.569 76.69L442.569 90.16C445.829 83.28 449.769 76.94 452.699 70.16L451.419 69.52L446.569 73.52L445.319 70.28L429.809 80.01L428.369 78.49L436.209 68.15L435.519 67.52C433.259 69.2 431.209 71.44 428.679 72.43C425.015 73.816 421.186 74.7203 417.289 75.12C412.929 75.62 410.359 73.12 410.079 68.76C409.869 65.59 408.569 64.55 405.689 65.93L402.089 57.93L398.189 60.85C397.629 57.46 397.139 54.45 396.439 50.2L389.439 47.62C391.679 46.26 393.489 45.16 395.619 43.85C396.239 45.74 396.689 47.11 397.129 48.43C399.459 47.78 401.869 47.59 403.739 46.49C406.819 44.67 408.289 44.06 407.049 48.64C406.889 49.26 408.139 50.27 409.049 51.5C409.999 49.82 410.629 48.72 411.259 47.63L409.999 49.1L420.189 53.83L418.749 55.6L421.499 50.4L429.649 60.62L433.649 56.97L436.139 60.19L439.409 53.19C439.749 55.71 439.949 57.13 440.249 59.33L444.789 55.53L461.909 62.86L465.349 60.13C469.109 64.46 477.719 62.81 477.219 72.7L480.729 68.8C486.509 70.22 491.989 71.48 497.409 72.95C499.217 73.5937 500.978 74.3622 502.679 75.25C504.539 76.05 506.499 76.67 508.259 77.64C509.489 78.3111 510.56 79.2387 511.399 80.36C512.849 82.36 514.019 84.51 515.339 86.65C520.629 83.42 516.059 79 517.759 74.47L522.939 83.74Z" fill="white"/>
<path d="M132.349 353.51C133.719 350.78 134.699 347.75 136.539 345.39C139.303 341.851 142.404 338.589 145.799 335.65C146.979 334.65 149.879 334.04 151.049 334.76C157.749 338.92 164.299 337.01 170.639 334.51C176.329 332.26 181.639 329.09 187.189 326.46C190.459 324.92 193.859 323.66 197.599 322.1C198.349 327.78 198.449 332.49 193.199 335.98V328.24L192.109 327.42C190.509 329.23 188.579 330.83 187.379 332.87C184.319 338.05 181.099 339.29 175.219 337.08C174.767 336.864 174.254 336.815 173.769 336.94C168.489 339.58 163.229 342.24 157.999 344.94C153.539 347.26 149.119 349.66 144.079 352.34V346.09C137.629 345.28 136.199 350.59 133.569 354.29L132.349 353.51Z" fill="white"/>
<path d="M381.669 30.07L389.539 33.39C382.349 47.53 386.209 62.8 383.619 77.25C376.059 73.44 374.539 38.82 381.669 30.07Z" fill="white"/>
<path d="M354.829 64.36C352.189 64.02 350.829 65.53 350.829 69.05L349.479 68.59C350.389 62.5 351.289 56.41 352.149 50.67L354.999 55.87C356.419 54.69 357.459 53.19 358.779 52.87C360.785 52.4648 362.856 52.5161 364.839 53.02C365.379 53.14 366.089 55.62 365.629 56.32C364.414 58.1495 362.88 59.745 361.099 61.03C359.095 62.2948 356.999 63.4079 354.829 64.36Z" fill="white"/>
<path d="M210.779 341.07C207.899 337.76 207.439 334.69 208.729 331.22C209.729 328.59 211.339 327.35 214.019 328.77C216.509 330.09 217.849 332.16 216.019 334.83C214.393 337.009 212.644 339.092 210.779 341.07Z" fill="white"/>
<path d="M370.479 33.06C373.769 38.06 375.089 43.06 371.229 48.97C370.999 42.99 370.709 38.03 370.479 33.06Z" fill="white"/>
<path d="M203.389 347.73C202.739 343.98 202.249 341.19 201.769 338.4L202.899 337.65L208.709 342.73L203.389 347.73Z" fill="white"/>
<path d="M351.999 73.11L356.629 82.36L354.709 83.26L350.319 73.69L351.999 73.11Z" fill="white"/>
<path d="M364.569 36.56L366.309 45.98C361.369 43.75 362.689 40.15 362.939 36.79L364.569 36.56Z" fill="white"/>
<path d="M392.099 327.36L448.709 339.65C445.249 344.84 442.139 349.65 438.799 354.31C438.369 354.91 436.689 354.99 435.709 354.78C428.709 353.24 421.849 351.28 414.839 349.99C401.739 347.53 396.339 337.9 392.099 327.36Z" fill="white"/>
<path d="M398.999 447.43C396.689 443.54 388.449 446.3 389.889 439.17C390.559 435.85 398.679 432.4 400.709 434.31C405.609 438.85 400.599 442.92 398.999 447.43Z" fill="white"/>
<path d="M747.659 350.43L789.659 354.04C781.439 365.49 768.659 366.35 758.989 374.15C754.989 366.71 751.109 359.52 747.239 352.32L747.659 350.43Z" fill="white"/>
</svg>
